<?xml version="1.0" encoding="UTF-8" standalone="no"?>
<!DOCTYPE svg PUBLIC "-//W3C//DTD SVG 1.1//EN"
 "http://www.w3.org/Graphics/SVG/1.1/DTD/svg11.dtd">
<!-- Generated by graphviz version 2.47.0 (20210316.0004)
 -->
<!-- Title: dependencies Pages: 1 -->
<svg width="1532pt" height="211pt"
 viewBox="0.00 0.00 1532.00 211.00" xmlns="http://www.w3.org/2000/svg" xmlns:xlink="http://www.w3.org/1999/xlink">
<g id="graph0" class="graph" transform="scale(1 1) rotate(0) translate(4 207)">
<title>dependencies</title>
<polygon fill="white" stroke="transparent" points="-4,4 -4,-207 1528,-207 1528,4 -4,4"/>
<text text-anchor="start" x="741.01" y="-42.4" font-family="Times-12" font-weight="bold" font-size="14.00">Legend</text>
<polygon fill="#ffffb3" stroke="transparent" points="528,-10 528,-30 548,-30 548,-10 528,-10"/>
<text text-anchor="start" x="551.63" y="-15.4" font-family="Times-12" font-size="14.00"> &#160;Declarations</text>
<polygon fill="#8dd3c7" stroke="transparent" points="641,-10 641,-30 661,-30 661,-10 641,-10"/>
<text text-anchor="start" x="664.73" y="-15.4" font-family="Times-12" font-size="14.00"> &#160;Module</text>
<polygon fill="#80b1d3" stroke="transparent" points="727,-10 727,-30 747,-30 747,-10 727,-10"/>
<text text-anchor="start" x="750.78" y="-15.4" font-family="Times-12" font-size="14.00"> &#160;Bootstrap</text>
<polygon fill="#fdb462" stroke="transparent" points="824,-10 824,-30 844,-30 844,-10 824,-10"/>
<text text-anchor="start" x="847.67" y="-15.4" font-family="Times-12" font-size="14.00"> &#160;Providers</text>
<polygon fill="#fb8072" stroke="transparent" points="920,-10 920,-30 940,-30 940,-10 920,-10"/>
<text text-anchor="start" x="943.73" y="-15.4" font-family="Times-12" font-size="14.00"> &#160;Exports</text>
<g id="clust1" class="cluster">
<title>cluster_SettingsModule</title>
<polygon fill="none" stroke="black" stroke-dasharray="1,5" points="8,-70 8,-195 1516,-195 1516,-70 8,-70"/>
</g>
<g id="clust2" class="cluster">
<title>cluster_SettingsModule_declarations</title>
<polygon fill="none" stroke="black" points="1366,-78 1366,-130 1508,-130 1508,-78 1366,-78"/>
</g>
<g id="clust4" class="cluster">
<title>cluster_SettingsModule_imports</title>
<polygon fill="none" stroke="black" points="16,-78 16,-130 1358,-130 1358,-78 16,-78"/>
</g>
<!-- SettingsComponent -->
<g id="node1" class="node">
<title>SettingsComponent</title>
<polygon fill="#ffffb3" stroke="black" points="1500.45,-122 1373.55,-122 1373.55,-86 1500.45,-86 1500.45,-122"/>
<text text-anchor="middle" x="1437" y="-99.8" font-family="Times,serif" font-size="14.00">SettingsComponent</text>
</g>
<!-- SettingsModule -->
<g id="node2" class="node">
<title>SettingsModule</title>
<polygon fill="#8dd3c7" stroke="black" points="860.16,-187 857.16,-191 836.16,-191 833.16,-187 755.84,-187 755.84,-151 860.16,-151 860.16,-187"/>
<text text-anchor="middle" x="808" y="-164.8" font-family="Times,serif" font-size="14.00">SettingsModule</text>
</g>
<!-- SettingsComponent&#45;&gt;SettingsModule -->
<g id="edge1" class="edge">
<title>SettingsComponent&#45;&gt;SettingsModule</title>
<path fill="none" stroke="black" d="M1437,-122.01C1437,-144.49 1437,-180 1437,-180 1437,-180 870.28,-180 870.28,-180"/>
<polygon fill="black" stroke="black" points="870.28,-176.5 860.28,-180 870.28,-183.5 870.28,-176.5"/>
</g>
<!-- ButtonComponent -->
<g id="node3" class="node">
<title>ButtonComponent</title>
<polygon fill="#8dd3c7" stroke="black" points="1349.95,-122 1346.95,-126 1325.95,-126 1322.95,-122 1230.05,-122 1230.05,-86 1349.95,-86 1349.95,-122"/>
<text text-anchor="middle" x="1290" y="-99.8" font-family="Times,serif" font-size="14.00">ButtonComponent</text>
</g>
<!-- ButtonComponent&#45;&gt;SettingsModule -->
<g id="edge2" class="edge">
<title>ButtonComponent&#45;&gt;SettingsModule</title>
<path fill="none" stroke="black" d="M1290,-122.13C1290,-142.57 1290,-173 1290,-173 1290,-173 870.5,-173 870.5,-173"/>
<polygon fill="black" stroke="black" points="870.5,-169.5 860.5,-173 870.5,-176.5 870.5,-169.5"/>
</g>
<!-- CommonModule -->
<g id="node4" class="node">
<title>CommonModule</title>
<polygon fill="#8dd3c7" stroke="black" points="1211.67,-122 1208.67,-126 1187.67,-126 1184.67,-122 1100.33,-122 1100.33,-86 1211.67,-86 1211.67,-122"/>
<text text-anchor="middle" x="1156" y="-99.8" font-family="Times,serif" font-size="14.00">CommonModule</text>
</g>
<!-- CommonModule&#45;&gt;SettingsModule -->
<g id="edge3" class="edge">
<title>CommonModule&#45;&gt;SettingsModule</title>
<path fill="none" stroke="black" d="M1156,-122.27C1156,-140.56 1156,-166 1156,-166 1156,-166 870.48,-166 870.48,-166"/>
<polygon fill="black" stroke="black" points="870.48,-162.5 860.48,-166 870.48,-169.5 870.48,-162.5"/>
</g>
<!-- MatInputModule -->
<g id="node5" class="node">
<title>MatInputModule</title>
<polygon fill="#8dd3c7" stroke="black" points="1081.65,-122 1078.65,-126 1057.65,-126 1054.65,-122 970.35,-122 970.35,-86 1081.65,-86 1081.65,-122"/>
<text text-anchor="middle" x="1026" y="-99.8" font-family="Times,serif" font-size="14.00">MatInputModule</text>
</g>
<!-- MatInputModule&#45;&gt;SettingsModule -->
<g id="edge4" class="edge">
<title>MatInputModule&#45;&gt;SettingsModule</title>
<path fill="none" stroke="black" d="M1026,-122.01C1026,-138.05 1026,-159 1026,-159 1026,-159 870.22,-159 870.22,-159"/>
<polygon fill="black" stroke="black" points="870.22,-155.5 860.22,-159 870.22,-162.5 870.22,-155.5"/>
</g>
<!-- MatFormFieldModule -->
<g id="node6" class="node">
<title>MatFormFieldModule</title>
<polygon fill="#8dd3c7" stroke="black" points="952.71,-122 949.71,-126 928.71,-126 925.71,-122 811.29,-122 811.29,-86 952.71,-86 952.71,-122"/>
<text text-anchor="middle" x="882" y="-99.8" font-family="Times,serif" font-size="14.00">MatFormFieldModule</text>
</g>
<!-- MatFormFieldModule&#45;&gt;SettingsModule -->
<g id="edge5" class="edge">
<title>MatFormFieldModule&#45;&gt;SettingsModule</title>
<path fill="none" stroke="black" d="M835.86,-122.11C835.86,-122.11 835.86,-140.99 835.86,-140.99"/>
<polygon fill="black" stroke="black" points="832.36,-140.99 835.86,-150.99 839.36,-140.99 832.36,-140.99"/>
</g>
<!-- MatSelectModule -->
<g id="node7" class="node">
<title>MatSelectModule</title>
<polygon fill="#8dd3c7" stroke="black" points="793.31,-122 790.31,-126 769.31,-126 766.31,-122 676.69,-122 676.69,-86 793.31,-86 793.31,-122"/>
<text text-anchor="middle" x="735" y="-99.8" font-family="Times,serif" font-size="14.00">MatSelectModule</text>
</g>
<!-- MatSelectModule&#45;&gt;SettingsModule -->
<g id="edge6" class="edge">
<title>MatSelectModule&#45;&gt;SettingsModule</title>
<path fill="none" stroke="black" d="M774.41,-122.11C774.41,-122.11 774.41,-140.99 774.41,-140.99"/>
<polygon fill="black" stroke="black" points="770.91,-140.99 774.41,-150.99 777.91,-140.99 770.91,-140.99"/>
</g>
<!-- MatSlideToggleModule -->
<g id="node8" class="node">
<title>MatSlideToggleModule</title>
<polygon fill="#8dd3c7" stroke="black" points="659.04,-122 656.04,-126 635.04,-126 632.04,-122 508.96,-122 508.96,-86 659.04,-86 659.04,-122"/>
<text text-anchor="middle" x="584" y="-99.8" font-family="Times,serif" font-size="14.00">MatSlideToggleModule</text>
</g>
<!-- MatSlideToggleModule&#45;&gt;SettingsModule -->
<g id="edge7" class="edge">
<title>MatSlideToggleModule&#45;&gt;SettingsModule</title>
<path fill="none" stroke="black" d="M584,-122.01C584,-138.05 584,-159 584,-159 584,-159 745.76,-159 745.76,-159"/>
<polygon fill="black" stroke="black" points="745.76,-162.5 755.76,-159 745.76,-155.5 745.76,-162.5"/>
</g>
<!-- MatSnackBarModule -->
<g id="node9" class="node">
<title>MatSnackBarModule</title>
<polygon fill="#8dd3c7" stroke="black" points="490.02,-122 487.02,-126 466.02,-126 463.02,-122 353.98,-122 353.98,-86 490.02,-86 490.02,-122"/>
<text text-anchor="middle" x="422" y="-99.8" font-family="Times,serif" font-size="14.00">MatSnackBarModule</text>
</g>
<!-- MatSnackBarModule&#45;&gt;SettingsModule -->
<g id="edge8" class="edge">
<title>MatSnackBarModule&#45;&gt;SettingsModule</title>
<path fill="none" stroke="black" d="M422,-122.27C422,-140.56 422,-166 422,-166 422,-166 745.54,-166 745.54,-166"/>
<polygon fill="black" stroke="black" points="745.54,-169.5 755.54,-166 745.54,-162.5 745.54,-169.5"/>
</g>
<!-- ReactiveFormsModule -->
<g id="node10" class="node">
<title>ReactiveFormsModule</title>
<polygon fill="#8dd3c7" stroke="black" points="336.3,-122 333.3,-126 312.3,-126 309.3,-122 191.7,-122 191.7,-86 336.3,-86 336.3,-122"/>
<text text-anchor="middle" x="264" y="-99.8" font-family="Times,serif" font-size="14.00">ReactiveFormsModule</text>
</g>
<!-- ReactiveFormsModule&#45;&gt;SettingsModule -->
<g id="edge9" class="edge">
<title>ReactiveFormsModule&#45;&gt;SettingsModule</title>
<path fill="none" stroke="black" d="M264,-122.13C264,-142.57 264,-173 264,-173 264,-173 745.34,-173 745.34,-173"/>
<polygon fill="black" stroke="black" points="745.34,-176.5 755.34,-173 745.34,-169.5 745.34,-176.5"/>
</g>
<!-- SlideToggleComponent -->
<g id="node11" class="node">
<title>SlideToggleComponent</title>
<polygon fill="#8dd3c7" stroke="black" points="173.77,-122 170.77,-126 149.77,-126 146.77,-122 24.23,-122 24.23,-86 173.77,-86 173.77,-122"/>
<text text-anchor="middle" x="99" y="-99.8" font-family="Times,serif" font-size="14.00">SlideToggleComponent</text>
</g>
<!-- SlideToggleComponent&#45;&gt;SettingsModule -->
<g id="edge10" class="edge">
<title>SlideToggleComponent&#45;&gt;SettingsModule</title>
<path fill="none" stroke="black" d="M99,-122.01C99,-144.49 99,-180 99,-180 99,-180 745.58,-180 745.58,-180"/>
<polygon fill="black" stroke="black" points="745.58,-183.5 755.58,-180 745.58,-176.5 745.58,-183.5"/>
</g>
</g>
</svg>
