<?xml version="1.0" encoding="UTF-8" standalone="no"?>
<!DOCTYPE svg PUBLIC "-//W3C//DTD SVG 1.1//EN"
 "http://www.w3.org/Graphics/SVG/1.1/DTD/svg11.dtd">
<!-- Generated by graphviz version 2.47.0 (20210316.0004)
 -->
<!-- Title: dependencies Pages: 1 -->
<svg width="1999pt" height="211pt"
 viewBox="0.00 0.00 1999.00 211.00" xmlns="http://www.w3.org/2000/svg" xmlns:xlink="http://www.w3.org/1999/xlink">
<g id="graph0" class="graph" transform="scale(1 1) rotate(0) translate(4 207)">
<title>dependencies</title>
<polygon fill="white" stroke="transparent" points="-4,4 -4,-207 1995,-207 1995,4 -4,4"/>
<text text-anchor="start" x="974.51" y="-42.4" font-family="Times-12" font-weight="bold" font-size="14.00">Legend</text>
<polygon fill="#ffffb3" stroke="transparent" points="761.5,-10 761.5,-30 781.5,-30 781.5,-10 761.5,-10"/>
<text text-anchor="start" x="785.13" y="-15.4" font-family="Times-12" font-size="14.00"> &#160;Declarations</text>
<polygon fill="#8dd3c7" stroke="transparent" points="874.5,-10 874.5,-30 894.5,-30 894.5,-10 874.5,-10"/>
<text text-anchor="start" x="898.23" y="-15.4" font-family="Times-12" font-size="14.00"> &#160;Module</text>
<polygon fill="#80b1d3" stroke="transparent" points="960.5,-10 960.5,-30 980.5,-30 980.5,-10 960.5,-10"/>
<text text-anchor="start" x="984.28" y="-15.4" font-family="Times-12" font-size="14.00"> &#160;Bootstrap</text>
<polygon fill="#fdb462" stroke="transparent" points="1057.5,-10 1057.5,-30 1077.5,-30 1077.5,-10 1057.5,-10"/>
<text text-anchor="start" x="1081.17" y="-15.4" font-family="Times-12" font-size="14.00"> &#160;Providers</text>
<polygon fill="#fb8072" stroke="transparent" points="1153.5,-10 1153.5,-30 1173.5,-30 1173.5,-10 1153.5,-10"/>
<text text-anchor="start" x="1177.23" y="-15.4" font-family="Times-12" font-size="14.00"> &#160;Exports</text>
<g id="clust1" class="cluster">
<title>cluster_LearnPageModule</title>
<polygon fill="none" stroke="black" stroke-dasharray="1,5" points="8,-70 8,-195 1983,-195 1983,-70 8,-70"/>
</g>
<g id="clust7" class="cluster">
<title>cluster_LearnPageModule_imports</title>
<polygon fill="none" stroke="black" points="784,-78 784,-130 1975,-130 1975,-78 784,-78"/>
</g>
<g id="clust2" class="cluster">
<title>cluster_LearnPageModule_declarations</title>
<polygon fill="none" stroke="black" points="16,-78 16,-130 776,-130 776,-78 16,-78"/>
</g>
<!-- SessionComponent -->
<g id="node1" class="node">
<title>SessionComponent</title>
<polygon fill="#ffffb3" stroke="black" points="768.11,-122 643.89,-122 643.89,-86 768.11,-86 768.11,-122"/>
<text text-anchor="middle" x="706" y="-99.8" font-family="Times,serif" font-size="14.00">SessionComponent</text>
</g>
<!-- LearnPageModule -->
<g id="node5" class="node">
<title>LearnPageModule</title>
<polygon fill="#8dd3c7" stroke="black" points="1130.9,-187 1127.9,-191 1106.9,-191 1103.9,-187 1011.1,-187 1011.1,-151 1130.9,-151 1130.9,-187"/>
<text text-anchor="middle" x="1071" y="-164.8" font-family="Times,serif" font-size="14.00">LearnPageModule</text>
</g>
<!-- SessionComponent&#45;&gt;LearnPageModule -->
<g id="edge1" class="edge">
<title>SessionComponent&#45;&gt;LearnPageModule</title>
<path fill="none" stroke="black" d="M706,-122.02C706,-139.37 706,-163 706,-163 706,-163 1001.14,-163 1001.14,-163"/>
<polygon fill="black" stroke="black" points="1001.14,-166.5 1011.14,-163 1001.14,-159.5 1001.14,-166.5"/>
</g>
<!-- SessionFillingStepComponent -->
<g id="node2" class="node">
<title>SessionFillingStepComponent</title>
<polygon fill="#ffffb3" stroke="black" points="626.34,-122 439.66,-122 439.66,-86 626.34,-86 626.34,-122"/>
<text text-anchor="middle" x="533" y="-99.8" font-family="Times,serif" font-size="14.00">SessionFillingStepComponent</text>
</g>
<!-- SessionFillingStepComponent&#45;&gt;LearnPageModule -->
<g id="edge2" class="edge">
<title>SessionFillingStepComponent&#45;&gt;LearnPageModule</title>
<path fill="none" stroke="black" d="M533,-122.11C533,-141.34 533,-169 533,-169 533,-169 1001.11,-169 1001.11,-169"/>
<polygon fill="black" stroke="black" points="1001.11,-172.5 1011.11,-169 1001.11,-165.5 1001.11,-172.5"/>
</g>
<!-- SessionLauncherComponent -->
<g id="node3" class="node">
<title>SessionLauncherComponent</title>
<polygon fill="#ffffb3" stroke="black" points="421.47,-122 244.53,-122 244.53,-86 421.47,-86 421.47,-122"/>
<text text-anchor="middle" x="333" y="-99.8" font-family="Times,serif" font-size="14.00">SessionLauncherComponent</text>
</g>
<!-- SessionLauncherComponent&#45;&gt;LearnPageModule -->
<g id="edge3" class="edge">
<title>SessionLauncherComponent&#45;&gt;LearnPageModule</title>
<path fill="none" stroke="black" d="M333,-122.28C333,-143.32 333,-175 333,-175 333,-175 1001.23,-175 1001.23,-175"/>
<polygon fill="black" stroke="black" points="1001.23,-178.5 1011.23,-175 1001.23,-171.5 1001.23,-178.5"/>
</g>
<!-- SessionMatchingStepComponent -->
<g id="node4" class="node">
<title>SessionMatchingStepComponent</title>
<polygon fill="#ffffb3" stroke="black" points="226.15,-122 23.85,-122 23.85,-86 226.15,-86 226.15,-122"/>
<text text-anchor="middle" x="125" y="-99.8" font-family="Times,serif" font-size="14.00">SessionMatchingStepComponent</text>
</g>
<!-- SessionMatchingStepComponent&#45;&gt;LearnPageModule -->
<g id="edge4" class="edge">
<title>SessionMatchingStepComponent&#45;&gt;LearnPageModule</title>
<path fill="none" stroke="black" d="M125,-122.09C125,-145.13 125,-182 125,-182 125,-182 1001.11,-182 1001.11,-182"/>
<polygon fill="black" stroke="black" points="1001.11,-185.5 1011.11,-182 1001.11,-178.5 1001.11,-185.5"/>
</g>
<!-- ButtonComponent -->
<g id="node6" class="node">
<title>ButtonComponent</title>
<polygon fill="#8dd3c7" stroke="black" points="1966.95,-122 1963.95,-126 1942.95,-126 1939.95,-122 1847.05,-122 1847.05,-86 1966.95,-86 1966.95,-122"/>
<text text-anchor="middle" x="1907" y="-99.8" font-family="Times,serif" font-size="14.00">ButtonComponent</text>
</g>
<!-- ButtonComponent&#45;&gt;LearnPageModule -->
<g id="edge5" class="edge">
<title>ButtonComponent&#45;&gt;LearnPageModule</title>
<path fill="none" stroke="black" d="M1907,-122.09C1907,-145.13 1907,-182 1907,-182 1907,-182 1140.79,-182 1140.79,-182"/>
<polygon fill="black" stroke="black" points="1140.79,-178.5 1130.79,-182 1140.79,-185.5 1140.79,-178.5"/>
</g>
<!-- CardComponent -->
<g id="node7" class="node">
<title>CardComponent</title>
<polygon fill="#8dd3c7" stroke="black" points="1829.05,-122 1826.05,-126 1805.05,-126 1802.05,-122 1720.95,-122 1720.95,-86 1829.05,-86 1829.05,-122"/>
<text text-anchor="middle" x="1775" y="-99.8" font-family="Times,serif" font-size="14.00">CardComponent</text>
</g>
<!-- CardComponent&#45;&gt;LearnPageModule -->
<g id="edge6" class="edge">
<title>CardComponent&#45;&gt;LearnPageModule</title>
<path fill="none" stroke="black" d="M1775,-122.28C1775,-143.32 1775,-175 1775,-175 1775,-175 1140.72,-175 1140.72,-175"/>
<polygon fill="black" stroke="black" points="1140.72,-171.5 1130.72,-175 1140.72,-178.5 1140.72,-171.5"/>
</g>
<!-- CardDifficultyComponent -->
<g id="node8" class="node">
<title>CardDifficultyComponent</title>
<polygon fill="#8dd3c7" stroke="black" points="1702.75,-122 1699.75,-126 1678.75,-126 1675.75,-122 1539.25,-122 1539.25,-86 1702.75,-86 1702.75,-122"/>
<text text-anchor="middle" x="1621" y="-99.8" font-family="Times,serif" font-size="14.00">CardDifficultyComponent</text>
</g>
<!-- CardDifficultyComponent&#45;&gt;LearnPageModule -->
<g id="edge7" class="edge">
<title>CardDifficultyComponent&#45;&gt;LearnPageModule</title>
<path fill="none" stroke="black" d="M1621,-122.11C1621,-141.34 1621,-169 1621,-169 1621,-169 1140.91,-169 1140.91,-169"/>
<polygon fill="black" stroke="black" points="1140.91,-165.5 1130.91,-169 1140.91,-172.5 1140.91,-165.5"/>
</g>
<!-- CardMeaningsPipe -->
<g id="node9" class="node">
<title>CardMeaningsPipe</title>
<polygon fill="#8dd3c7" stroke="black" points="1520.81,-122 1517.81,-126 1496.81,-126 1493.81,-122 1397.19,-122 1397.19,-86 1520.81,-86 1520.81,-122"/>
<text text-anchor="middle" x="1459" y="-99.8" font-family="Times,serif" font-size="14.00">CardMeaningsPipe</text>
</g>
<!-- CardMeaningsPipe&#45;&gt;LearnPageModule -->
<g id="edge8" class="edge">
<title>CardMeaningsPipe&#45;&gt;LearnPageModule</title>
<path fill="none" stroke="black" d="M1459,-122.02C1459,-139.37 1459,-163 1459,-163 1459,-163 1140.77,-163 1140.77,-163"/>
<polygon fill="black" stroke="black" points="1140.77,-159.5 1130.77,-163 1140.77,-166.5 1140.77,-159.5"/>
</g>
<!-- CardProgressIndicatorComponent -->
<g id="node10" class="node">
<title>CardProgressIndicatorComponent</title>
<polygon fill="#8dd3c7" stroke="black" points="1379.78,-122 1376.78,-126 1355.78,-126 1352.78,-122 1172.22,-122 1172.22,-86 1379.78,-86 1379.78,-122"/>
<text text-anchor="middle" x="1276" y="-99.8" font-family="Times,serif" font-size="14.00">CardProgressIndicatorComponent</text>
</g>
<!-- CardProgressIndicatorComponent&#45;&gt;LearnPageModule -->
<g id="edge9" class="edge">
<title>CardProgressIndicatorComponent&#45;&gt;LearnPageModule</title>
<path fill="none" stroke="black" d="M1276,-122.24C1276,-137.57 1276,-157 1276,-157 1276,-157 1140.85,-157 1140.85,-157"/>
<polygon fill="black" stroke="black" points="1140.85,-153.5 1130.85,-157 1140.85,-160.5 1140.85,-153.5"/>
</g>
<!-- ConfirmDialogComponent -->
<g id="node11" class="node">
<title>ConfirmDialogComponent</title>
<polygon fill="#8dd3c7" stroke="black" points="1154.37,-122 1151.37,-126 1130.37,-126 1127.37,-122 987.63,-122 987.63,-86 1154.37,-86 1154.37,-122"/>
<text text-anchor="middle" x="1071" y="-99.8" font-family="Times,serif" font-size="14.00">ConfirmDialogComponent</text>
</g>
<!-- ConfirmDialogComponent&#45;&gt;LearnPageModule -->
<g id="edge10" class="edge">
<title>ConfirmDialogComponent&#45;&gt;LearnPageModule</title>
<path fill="none" stroke="black" d="M1071,-122.11C1071,-122.11 1071,-140.99 1071,-140.99"/>
<polygon fill="black" stroke="black" points="1067.5,-140.99 1071,-150.99 1074.5,-140.99 1067.5,-140.99"/>
</g>
<!-- PinyinFormFieldComponent -->
<g id="node12" class="node">
<title>PinyinFormFieldComponent</title>
<polygon fill="#8dd3c7" stroke="black" points="969.51,-122 966.51,-126 945.51,-126 942.51,-122 792.49,-122 792.49,-86 969.51,-86 969.51,-122"/>
<text text-anchor="middle" x="881" y="-99.8" font-family="Times,serif" font-size="14.00">PinyinFormFieldComponent</text>
</g>
<!-- PinyinFormFieldComponent&#45;&gt;LearnPageModule -->
<g id="edge11" class="edge">
<title>PinyinFormFieldComponent&#45;&gt;LearnPageModule</title>
<path fill="none" stroke="black" d="M881,-122.24C881,-137.57 881,-157 881,-157 881,-157 1001.14,-157 1001.14,-157"/>
<polygon fill="black" stroke="black" points="1001.14,-160.5 1011.14,-157 1001.14,-153.5 1001.14,-160.5"/>
</g>
</g>
</svg>
