<?xml version="1.0" encoding="UTF-8" standalone="no"?>
<!DOCTYPE svg PUBLIC "-//W3C//DTD SVG 1.1//EN"
 "http://www.w3.org/Graphics/SVG/1.1/DTD/svg11.dtd">
<!-- Generated by graphviz version 2.47.0 (20210316.0004)
 -->
<!-- Title: dependencies Pages: 1 -->
<svg width="3724pt" height="211pt"
 viewBox="0.00 0.00 3724.00 211.00" xmlns="http://www.w3.org/2000/svg" xmlns:xlink="http://www.w3.org/1999/xlink">
<g id="graph0" class="graph" transform="scale(1 1) rotate(0) translate(4 207)">
<title>dependencies</title>
<polygon fill="white" stroke="transparent" points="-4,4 -4,-207 3720,-207 3720,4 -4,4"/>
<text text-anchor="start" x="1837.01" y="-42.4" font-family="Times-12" font-weight="bold" font-size="14.00">Legend</text>
<polygon fill="#ffffb3" stroke="transparent" points="1624,-10 1624,-30 1644,-30 1644,-10 1624,-10"/>
<text text-anchor="start" x="1647.63" y="-15.4" font-family="Times-12" font-size="14.00"> &#160;Declarations</text>
<polygon fill="#8dd3c7" stroke="transparent" points="1737,-10 1737,-30 1757,-30 1757,-10 1737,-10"/>
<text text-anchor="start" x="1760.73" y="-15.4" font-family="Times-12" font-size="14.00"> &#160;Module</text>
<polygon fill="#80b1d3" stroke="transparent" points="1823,-10 1823,-30 1843,-30 1843,-10 1823,-10"/>
<text text-anchor="start" x="1846.78" y="-15.4" font-family="Times-12" font-size="14.00"> &#160;Bootstrap</text>
<polygon fill="#fdb462" stroke="transparent" points="1920,-10 1920,-30 1940,-30 1940,-10 1920,-10"/>
<text text-anchor="start" x="1943.67" y="-15.4" font-family="Times-12" font-size="14.00"> &#160;Providers</text>
<polygon fill="#fb8072" stroke="transparent" points="2016,-10 2016,-30 2036,-30 2036,-10 2016,-10"/>
<text text-anchor="start" x="2039.73" y="-15.4" font-family="Times-12" font-size="14.00"> &#160;Exports</text>
<g id="clust1" class="cluster">
<title>cluster_LearnPageModule</title>
<polygon fill="none" stroke="black" stroke-dasharray="1,5" points="8,-70 8,-195 3708,-195 3708,-70 8,-70"/>
</g>
<g id="clust8" class="cluster">
<title>cluster_LearnPageModule_imports</title>
<polygon fill="none" stroke="black" points="945,-78 945,-130 3700,-130 3700,-78 945,-78"/>
</g>
<g id="clust2" class="cluster">
<title>cluster_LearnPageModule_declarations</title>
<polygon fill="none" stroke="black" points="16,-78 16,-130 937,-130 937,-78 16,-78"/>
</g>
<!-- SessionLauncherComponent -->
<g id="node1" class="node">
<title>SessionLauncherComponent</title>
<polygon fill="#ffffb3" stroke="black" points="929.47,-122 752.53,-122 752.53,-86 929.47,-86 929.47,-122"/>
<text text-anchor="middle" x="841" y="-99.8" font-family="Times,serif" font-size="14.00">SessionLauncherComponent</text>
</g>
<!-- LearnPageModule -->
<g id="node6" class="node">
<title>LearnPageModule</title>
<polygon fill="#8dd3c7" stroke="black" points="2016.9,-187 2013.9,-191 1992.9,-191 1989.9,-187 1897.1,-187 1897.1,-151 2016.9,-151 2016.9,-187"/>
<text text-anchor="middle" x="1957" y="-164.8" font-family="Times,serif" font-size="14.00">LearnPageModule</text>
</g>
<!-- SessionLauncherComponent&#45;&gt;LearnPageModule -->
<g id="edge1" class="edge">
<title>SessionLauncherComponent&#45;&gt;LearnPageModule</title>
<path fill="none" stroke="black" d="M841,-122.22C841,-142.37 841,-172 841,-172 841,-172 1887,-172 1887,-172"/>
<polygon fill="black" stroke="black" points="1887,-175.5 1897,-172 1887,-168.5 1887,-175.5"/>
</g>
<!-- SessionComponent -->
<g id="node2" class="node">
<title>SessionComponent</title>
<polygon fill="#ffffb3" stroke="black" points="734.11,-122 609.89,-122 609.89,-86 734.11,-86 734.11,-122"/>
<text text-anchor="middle" x="672" y="-99.8" font-family="Times,serif" font-size="14.00">SessionComponent</text>
</g>
<!-- SessionComponent&#45;&gt;LearnPageModule -->
<g id="edge2" class="edge">
<title>SessionComponent&#45;&gt;LearnPageModule</title>
<path fill="none" stroke="black" d="M672,-122.28C672,-143.32 672,-175 672,-175 672,-175 1887.17,-175 1887.17,-175"/>
<polygon fill="black" stroke="black" points="1887.17,-178.5 1897.17,-175 1887.17,-171.5 1887.17,-178.5"/>
</g>
<!-- SessionMatchingStepComponent -->
<g id="node3" class="node">
<title>SessionMatchingStepComponent</title>
<polygon fill="#ffffb3" stroke="black" points="592.15,-122 389.85,-122 389.85,-86 592.15,-86 592.15,-122"/>
<text text-anchor="middle" x="491" y="-99.8" font-family="Times,serif" font-size="14.00">SessionMatchingStepComponent</text>
</g>
<!-- SessionMatchingStepComponent&#45;&gt;LearnPageModule -->
<g id="edge3" class="edge">
<title>SessionMatchingStepComponent&#45;&gt;LearnPageModule</title>
<path fill="none" stroke="black" d="M491,-122.29C491,-144.21 491,-178 491,-178 491,-178 1887.26,-178 1887.26,-178"/>
<polygon fill="black" stroke="black" points="1887.26,-181.5 1897.26,-178 1887.26,-174.5 1887.26,-181.5"/>
</g>
<!-- SessionFillingStepComponent -->
<g id="node4" class="node">
<title>SessionFillingStepComponent</title>
<polygon fill="#ffffb3" stroke="black" points="372.34,-122 185.66,-122 185.66,-86 372.34,-86 372.34,-122"/>
<text text-anchor="middle" x="279" y="-99.8" font-family="Times,serif" font-size="14.00">SessionFillingStepComponent</text>
</g>
<!-- SessionFillingStepComponent&#45;&gt;LearnPageModule -->
<g id="edge4" class="edge">
<title>SessionFillingStepComponent&#45;&gt;LearnPageModule</title>
<path fill="none" stroke="black" d="M279,-122.09C279,-145.13 279,-182 279,-182 279,-182 1887.28,-182 1887.28,-182"/>
<polygon fill="black" stroke="black" points="1887.28,-185.5 1897.28,-182 1887.28,-178.5 1887.28,-185.5"/>
</g>
<!-- ResultCardComponent -->
<g id="node5" class="node">
<title>ResultCardComponent</title>
<polygon fill="#ffffb3" stroke="black" points="168.32,-122 23.68,-122 23.68,-86 168.32,-86 168.32,-122"/>
<text text-anchor="middle" x="96" y="-99.8" font-family="Times,serif" font-size="14.00">ResultCardComponent</text>
</g>
<!-- ResultCardComponent&#45;&gt;LearnPageModule -->
<g id="edge5" class="edge">
<title>ResultCardComponent&#45;&gt;LearnPageModule</title>
<path fill="none" stroke="black" d="M96,-122.15C96,-145.76 96,-184 96,-184 96,-184 1887.19,-184 1887.19,-184"/>
<polygon fill="black" stroke="black" points="1887.19,-187.5 1897.19,-184 1887.19,-180.5 1887.19,-187.5"/>
</g>
<!-- ButtonComponent -->
<g id="node7" class="node">
<title>ButtonComponent</title>
<polygon fill="#8dd3c7" stroke="black" points="3691.95,-122 3688.95,-126 3667.95,-126 3664.95,-122 3572.05,-122 3572.05,-86 3691.95,-86 3691.95,-122"/>
<text text-anchor="middle" x="3632" y="-99.8" font-family="Times,serif" font-size="14.00">ButtonComponent</text>
</g>
<!-- ButtonComponent&#45;&gt;LearnPageModule -->
<g id="edge6" class="edge">
<title>ButtonComponent&#45;&gt;LearnPageModule</title>
<path fill="none" stroke="black" d="M3632,-122.15C3632,-145.76 3632,-184 3632,-184 3632,-184 2027.11,-184 2027.11,-184"/>
<polygon fill="black" stroke="black" points="2027.11,-180.5 2017.11,-184 2027.11,-187.5 2027.11,-180.5"/>
</g>
<!-- CardComponent -->
<g id="node8" class="node">
<title>CardComponent</title>
<polygon fill="#8dd3c7" stroke="black" points="3554.05,-122 3551.05,-126 3530.05,-126 3527.05,-122 3445.95,-122 3445.95,-86 3554.05,-86 3554.05,-122"/>
<text text-anchor="middle" x="3500" y="-99.8" font-family="Times,serif" font-size="14.00">CardComponent</text>
</g>
<!-- CardComponent&#45;&gt;LearnPageModule -->
<g id="edge7" class="edge">
<title>CardComponent&#45;&gt;LearnPageModule</title>
<path fill="none" stroke="black" d="M3500,-122.09C3500,-145.13 3500,-182 3500,-182 3500,-182 2027.01,-182 2027.01,-182"/>
<polygon fill="black" stroke="black" points="2027.01,-178.5 2017.01,-182 2027.01,-185.5 2027.01,-178.5"/>
</g>
<!-- CardDifficultyComponent -->
<g id="node9" class="node">
<title>CardDifficultyComponent</title>
<polygon fill="#8dd3c7" stroke="black" points="3427.75,-122 3424.75,-126 3403.75,-126 3400.75,-122 3264.25,-122 3264.25,-86 3427.75,-86 3427.75,-122"/>
<text text-anchor="middle" x="3346" y="-99.8" font-family="Times,serif" font-size="14.00">CardDifficultyComponent</text>
</g>
<!-- CardDifficultyComponent&#45;&gt;LearnPageModule -->
<g id="edge8" class="edge">
<title>CardDifficultyComponent&#45;&gt;LearnPageModule</title>
<path fill="none" stroke="black" d="M3346,-122.29C3346,-144.21 3346,-178 3346,-178 3346,-178 2027.13,-178 2027.13,-178"/>
<polygon fill="black" stroke="black" points="2027.13,-174.5 2017.13,-178 2027.13,-181.5 2027.13,-174.5"/>
</g>
<!-- CardMeaningsPipe -->
<g id="node10" class="node">
<title>CardMeaningsPipe</title>
<polygon fill="#8dd3c7" stroke="black" points="3245.81,-122 3242.81,-126 3221.81,-126 3218.81,-122 3122.19,-122 3122.19,-86 3245.81,-86 3245.81,-122"/>
<text text-anchor="middle" x="3184" y="-99.8" font-family="Times,serif" font-size="14.00">CardMeaningsPipe</text>
</g>
<!-- CardMeaningsPipe&#45;&gt;LearnPageModule -->
<g id="edge9" class="edge">
<title>CardMeaningsPipe&#45;&gt;LearnPageModule</title>
<path fill="none" stroke="black" d="M3184,-122.28C3184,-143.32 3184,-175 3184,-175 3184,-175 2027.01,-175 2027.01,-175"/>
<polygon fill="black" stroke="black" points="2027.01,-171.5 2017.01,-175 2027.01,-178.5 2027.01,-171.5"/>
</g>
<!-- CardProgressIndicatorComponent -->
<g id="node11" class="node">
<title>CardProgressIndicatorComponent</title>
<polygon fill="#8dd3c7" stroke="black" points="3104.78,-122 3101.78,-126 3080.78,-126 3077.78,-122 2897.22,-122 2897.22,-86 3104.78,-86 3104.78,-122"/>
<text text-anchor="middle" x="3001" y="-99.8" font-family="Times,serif" font-size="14.00">CardProgressIndicatorComponent</text>
</g>
<!-- CardProgressIndicatorComponent&#45;&gt;LearnPageModule -->
<g id="edge10" class="edge">
<title>CardProgressIndicatorComponent&#45;&gt;LearnPageModule</title>
<path fill="none" stroke="black" d="M3001,-122.22C3001,-142.37 3001,-172 3001,-172 3001,-172 2026.88,-172 2026.88,-172"/>
<polygon fill="black" stroke="black" points="2026.88,-168.5 2016.88,-172 2026.88,-175.5 2026.88,-168.5"/>
</g>
<!-- CommonModule -->
<g id="node12" class="node">
<title>CommonModule</title>
<polygon fill="#8dd3c7" stroke="black" points="2879.67,-122 2876.67,-126 2855.67,-126 2852.67,-122 2768.33,-122 2768.33,-86 2879.67,-86 2879.67,-122"/>
<text text-anchor="middle" x="2824" y="-99.8" font-family="Times,serif" font-size="14.00">CommonModule</text>
</g>
<!-- CommonModule&#45;&gt;LearnPageModule -->
<g id="edge11" class="edge">
<title>CommonModule&#45;&gt;LearnPageModule</title>
<path fill="none" stroke="black" d="M2824,-122.11C2824,-141.34 2824,-169 2824,-169 2824,-169 2026.93,-169 2026.93,-169"/>
<polygon fill="black" stroke="black" points="2026.93,-165.5 2016.93,-169 2026.93,-172.5 2026.93,-165.5"/>
</g>
<!-- ConfirmDialogComponent -->
<g id="node13" class="node">
<title>ConfirmDialogComponent</title>
<polygon fill="#8dd3c7" stroke="black" points="2750.37,-122 2747.37,-126 2726.37,-126 2723.37,-122 2583.63,-122 2583.63,-86 2750.37,-86 2750.37,-122"/>
<text text-anchor="middle" x="2667" y="-99.8" font-family="Times,serif" font-size="14.00">ConfirmDialogComponent</text>
</g>
<!-- ConfirmDialogComponent&#45;&gt;LearnPageModule -->
<g id="edge12" class="edge">
<title>ConfirmDialogComponent&#45;&gt;LearnPageModule</title>
<path fill="none" stroke="black" d="M2667,-122.22C2667,-140.83 2667,-167 2667,-167 2667,-167 2026.92,-167 2026.92,-167"/>
<polygon fill="black" stroke="black" points="2026.92,-163.5 2016.92,-167 2026.92,-170.5 2026.92,-163.5"/>
</g>
<!-- FontAwesomeModule -->
<g id="node14" class="node">
<title>FontAwesomeModule</title>
<polygon fill="#8dd3c7" stroke="black" points="2565.7,-122 2562.7,-126 2541.7,-126 2538.7,-122 2424.3,-122 2424.3,-86 2565.7,-86 2565.7,-122"/>
<text text-anchor="middle" x="2495" y="-99.8" font-family="Times,serif" font-size="14.00">FontAwesomeModule</text>
</g>
<!-- FontAwesomeModule&#45;&gt;LearnPageModule -->
<g id="edge13" class="edge">
<title>FontAwesomeModule&#45;&gt;LearnPageModule</title>
<path fill="none" stroke="black" d="M2495,-122.02C2495,-139.37 2495,-163 2495,-163 2495,-163 2026.89,-163 2026.89,-163"/>
<polygon fill="black" stroke="black" points="2026.89,-159.5 2016.89,-163 2026.89,-166.5 2026.89,-159.5"/>
</g>
<!-- FormsModule -->
<g id="node15" class="node">
<title>FormsModule</title>
<polygon fill="#8dd3c7" stroke="black" points="2406.83,-122 2403.83,-126 2382.83,-126 2379.83,-122 2311.17,-122 2311.17,-86 2406.83,-86 2406.83,-122"/>
<text text-anchor="middle" x="2359" y="-99.8" font-family="Times,serif" font-size="14.00">FormsModule</text>
</g>
<!-- FormsModule&#45;&gt;LearnPageModule -->
<g id="edge14" class="edge">
<title>FormsModule&#45;&gt;LearnPageModule</title>
<path fill="none" stroke="black" d="M2359,-122.03C2359,-138.4 2359,-160 2359,-160 2359,-160 2026.75,-160 2026.75,-160"/>
<polygon fill="black" stroke="black" points="2026.75,-156.5 2016.75,-160 2026.75,-163.5 2026.75,-156.5"/>
</g>
<!-- MatButtonModule -->
<g id="node16" class="node">
<title>MatButtonModule</title>
<polygon fill="#8dd3c7" stroke="black" points="2293.22,-122 2290.22,-126 2269.22,-126 2266.22,-122 2172.78,-122 2172.78,-86 2293.22,-86 2293.22,-122"/>
<text text-anchor="middle" x="2233" y="-99.8" font-family="Times,serif" font-size="14.00">MatButtonModule</text>
</g>
<!-- MatButtonModule&#45;&gt;LearnPageModule -->
<g id="edge15" class="edge">
<title>MatButtonModule&#45;&gt;LearnPageModule</title>
<path fill="none" stroke="black" d="M2233,-122.24C2233,-137.57 2233,-157 2233,-157 2233,-157 2026.89,-157 2026.89,-157"/>
<polygon fill="black" stroke="black" points="2026.89,-153.5 2016.89,-157 2026.89,-160.5 2026.89,-153.5"/>
</g>
<!-- MatCardModule -->
<g id="node17" class="node">
<title>MatCardModule</title>
<polygon fill="#8dd3c7" stroke="black" points="2154.81,-122 2151.81,-126 2130.81,-126 2127.81,-122 2045.19,-122 2045.19,-86 2154.81,-86 2154.81,-122"/>
<text text-anchor="middle" x="2100" y="-99.8" font-family="Times,serif" font-size="14.00">MatCardModule</text>
</g>
<!-- MatCardModule&#45;&gt;LearnPageModule -->
<g id="edge16" class="edge">
<title>MatCardModule&#45;&gt;LearnPageModule</title>
<path fill="none" stroke="black" d="M2100,-122.05C2100,-136.37 2100,-154 2100,-154 2100,-154 2026.82,-154 2026.82,-154"/>
<polygon fill="black" stroke="black" points="2026.82,-150.5 2016.82,-154 2026.82,-157.5 2026.82,-150.5"/>
</g>
<!-- MatFormFieldModule -->
<g id="node18" class="node">
<title>MatFormFieldModule</title>
<polygon fill="#8dd3c7" stroke="black" points="2027.71,-122 2024.71,-126 2003.71,-126 2000.71,-122 1886.29,-122 1886.29,-86 2027.71,-86 2027.71,-122"/>
<text text-anchor="middle" x="1957" y="-99.8" font-family="Times,serif" font-size="14.00">MatFormFieldModule</text>
</g>
<!-- MatFormFieldModule&#45;&gt;LearnPageModule -->
<g id="edge17" class="edge">
<title>MatFormFieldModule&#45;&gt;LearnPageModule</title>
<path fill="none" stroke="black" d="M1957,-122.11C1957,-122.11 1957,-140.99 1957,-140.99"/>
<polygon fill="black" stroke="black" points="1953.5,-140.99 1957,-150.99 1960.5,-140.99 1953.5,-140.99"/>
</g>
<!-- MatIconModule -->
<g id="node19" class="node">
<title>MatIconModule</title>
<polygon fill="#8dd3c7" stroke="black" points="1868.47,-122 1865.47,-126 1844.47,-126 1841.47,-122 1761.53,-122 1761.53,-86 1868.47,-86 1868.47,-122"/>
<text text-anchor="middle" x="1815" y="-99.8" font-family="Times,serif" font-size="14.00">MatIconModule</text>
</g>
<!-- MatIconModule&#45;&gt;LearnPageModule -->
<g id="edge18" class="edge">
<title>MatIconModule&#45;&gt;LearnPageModule</title>
<path fill="none" stroke="black" d="M1815,-122.05C1815,-136.37 1815,-154 1815,-154 1815,-154 1887.19,-154 1887.19,-154"/>
<polygon fill="black" stroke="black" points="1887.19,-157.5 1897.19,-154 1887.19,-150.5 1887.19,-157.5"/>
</g>
<!-- MatInputModule -->
<g id="node20" class="node">
<title>MatInputModule</title>
<polygon fill="#8dd3c7" stroke="black" points="1743.65,-122 1740.65,-126 1719.65,-126 1716.65,-122 1632.35,-122 1632.35,-86 1743.65,-86 1743.65,-122"/>
<text text-anchor="middle" x="1688" y="-99.8" font-family="Times,serif" font-size="14.00">MatInputModule</text>
</g>
<!-- MatInputModule&#45;&gt;LearnPageModule -->
<g id="edge19" class="edge">
<title>MatInputModule&#45;&gt;LearnPageModule</title>
<path fill="none" stroke="black" d="M1688,-122.24C1688,-137.57 1688,-157 1688,-157 1688,-157 1886.97,-157 1886.97,-157"/>
<polygon fill="black" stroke="black" points="1886.97,-160.5 1896.97,-157 1886.97,-153.5 1886.97,-160.5"/>
</g>
<!-- MatProgressSpinnerModule -->
<g id="node21" class="node">
<title>MatProgressSpinnerModule</title>
<polygon fill="#8dd3c7" stroke="black" points="1613.86,-122 1610.86,-126 1589.86,-126 1586.86,-122 1440.14,-122 1440.14,-86 1613.86,-86 1613.86,-122"/>
<text text-anchor="middle" x="1527" y="-99.8" font-family="Times,serif" font-size="14.00">MatProgressSpinnerModule</text>
</g>
<!-- MatProgressSpinnerModule&#45;&gt;LearnPageModule -->
<g id="edge20" class="edge">
<title>MatProgressSpinnerModule&#45;&gt;LearnPageModule</title>
<path fill="none" stroke="black" d="M1527,-122.03C1527,-138.4 1527,-160 1527,-160 1527,-160 1887.21,-160 1887.21,-160"/>
<polygon fill="black" stroke="black" points="1887.21,-163.5 1897.21,-160 1887.21,-156.5 1887.21,-163.5"/>
</g>
<!-- NgCircleProgressModule -->
<g id="node22" class="node">
<title>NgCircleProgressModule</title>
<polygon fill="#8dd3c7" stroke="black" points="1422.57,-122 1419.57,-126 1398.57,-126 1395.57,-122 1263.43,-122 1263.43,-86 1422.57,-86 1422.57,-122"/>
<text text-anchor="middle" x="1343" y="-99.8" font-family="Times,serif" font-size="14.00">NgCircleProgressModule</text>
</g>
<!-- NgCircleProgressModule&#45;&gt;LearnPageModule -->
<g id="edge21" class="edge">
<title>NgCircleProgressModule&#45;&gt;LearnPageModule</title>
<path fill="none" stroke="black" d="M1343,-122.02C1343,-139.37 1343,-163 1343,-163 1343,-163 1887.29,-163 1887.29,-163"/>
<polygon fill="black" stroke="black" points="1887.29,-166.5 1897.29,-163 1887.29,-159.5 1887.29,-166.5"/>
</g>
<!-- PinyinFormFieldComponent -->
<g id="node23" class="node">
<title>PinyinFormFieldComponent</title>
<polygon fill="#8dd3c7" stroke="black" points="1245.51,-122 1242.51,-126 1221.51,-126 1218.51,-122 1068.49,-122 1068.49,-86 1245.51,-86 1245.51,-122"/>
<text text-anchor="middle" x="1157" y="-99.8" font-family="Times,serif" font-size="14.00">PinyinFormFieldComponent</text>
</g>
<!-- PinyinFormFieldComponent&#45;&gt;LearnPageModule -->
<g id="edge22" class="edge">
<title>PinyinFormFieldComponent&#45;&gt;LearnPageModule</title>
<path fill="none" stroke="black" d="M1157,-122.22C1157,-140.83 1157,-167 1157,-167 1157,-167 1887.2,-167 1887.2,-167"/>
<polygon fill="black" stroke="black" points="1887.2,-170.5 1897.2,-167 1887.2,-163.5 1887.2,-170.5"/>
</g>
<!-- RouterModule -->
<g id="node24" class="node">
<title>RouterModule</title>
<polygon fill="#8dd3c7" stroke="black" points="1050.65,-122 1047.65,-126 1026.65,-126 1023.65,-122 953.35,-122 953.35,-86 1050.65,-86 1050.65,-122"/>
<text text-anchor="middle" x="1002" y="-99.8" font-family="Times,serif" font-size="14.00">RouterModule</text>
</g>
<!-- RouterModule&#45;&gt;LearnPageModule -->
<g id="edge23" class="edge">
<title>RouterModule&#45;&gt;LearnPageModule</title>
<path fill="none" stroke="black" d="M1002,-122.11C1002,-141.34 1002,-169 1002,-169 1002,-169 1887.26,-169 1887.26,-169"/>
<polygon fill="black" stroke="black" points="1887.26,-172.5 1897.26,-169 1887.26,-165.5 1887.26,-172.5"/>
</g>
</g>
</svg>
