<?xml version="1.0" encoding="UTF-8" standalone="no"?>
<!DOCTYPE svg PUBLIC "-//W3C//DTD SVG 1.1//EN"
 "http://www.w3.org/Graphics/SVG/1.1/DTD/svg11.dtd">
<!-- Generated by graphviz version 2.47.0 (20210316.0004)
 -->
<!-- Title: dependencies Pages: 1 -->
<svg width="1020pt" height="284pt"
 viewBox="0.00 0.00 1020.00 284.00" xmlns="http://www.w3.org/2000/svg" xmlns:xlink="http://www.w3.org/1999/xlink">
<g id="graph0" class="graph" transform="scale(1 1) rotate(0) translate(4 280)">
<title>dependencies</title>
<polygon fill="white" stroke="transparent" points="-4,4 -4,-280 1016,-280 1016,4 -4,4"/>
<text text-anchor="start" x="485.01" y="-42.4" font-family="Times-12" font-weight="bold" font-size="14.00">Legend</text>
<polygon fill="#ffffb3" stroke="transparent" points="272,-10 272,-30 292,-30 292,-10 272,-10"/>
<text text-anchor="start" x="295.63" y="-15.4" font-family="Times-12" font-size="14.00"> &#160;Declarations</text>
<polygon fill="#8dd3c7" stroke="transparent" points="385,-10 385,-30 405,-30 405,-10 385,-10"/>
<text text-anchor="start" x="408.73" y="-15.4" font-family="Times-12" font-size="14.00"> &#160;Module</text>
<polygon fill="#80b1d3" stroke="transparent" points="471,-10 471,-30 491,-30 491,-10 471,-10"/>
<text text-anchor="start" x="494.78" y="-15.4" font-family="Times-12" font-size="14.00"> &#160;Bootstrap</text>
<polygon fill="#fdb462" stroke="transparent" points="568,-10 568,-30 588,-30 588,-10 568,-10"/>
<text text-anchor="start" x="591.67" y="-15.4" font-family="Times-12" font-size="14.00"> &#160;Providers</text>
<polygon fill="#fb8072" stroke="transparent" points="664,-10 664,-30 684,-30 684,-10 664,-10"/>
<text text-anchor="start" x="687.73" y="-15.4" font-family="Times-12" font-size="14.00"> &#160;Exports</text>
<g id="clust1" class="cluster">
<title>cluster_AppModule</title>
<polygon fill="none" stroke="black" stroke-dasharray="1,5" points="8,-70 8,-268 1004,-268 1004,-70 8,-70"/>
</g>
<g id="clust6" class="cluster">
<title>cluster_AppModule_bootstrap</title>
<polygon fill="none" stroke="black" points="427,-208 427,-260 551,-260 551,-208 427,-208"/>
</g>
<g id="clust2" class="cluster">
<title>cluster_AppModule_declarations</title>
<polygon fill="none" stroke="black" points="874,-78 874,-130 996,-130 996,-78 874,-78"/>
</g>
<g id="clust4" class="cluster">
<title>cluster_AppModule_imports</title>
<polygon fill="none" stroke="black" points="16,-78 16,-130 866,-130 866,-78 16,-78"/>
</g>
<!-- AppComponent -->
<g id="node1" class="node">
<title>AppComponent</title>
<polygon fill="#ffffb3" stroke="black" points="987.94,-122 882.06,-122 882.06,-86 987.94,-86 987.94,-122"/>
<text text-anchor="middle" x="935" y="-99.8" font-family="Times,serif" font-size="14.00">AppComponent</text>
</g>
<!-- AppModule -->
<g id="node2" class="node">
<title>AppModule</title>
<polygon fill="#8dd3c7" stroke="black" points="530.66,-187 527.66,-191 506.66,-191 503.66,-187 447.34,-187 447.34,-151 530.66,-151 530.66,-187"/>
<text text-anchor="middle" x="489" y="-164.8" font-family="Times,serif" font-size="14.00">AppModule</text>
</g>
<!-- AppComponent&#45;&gt;AppModule -->
<g id="edge1" class="edge">
<title>AppComponent&#45;&gt;AppModule</title>
<path fill="none" stroke="black" d="M935,-122.29C935,-144.21 935,-178 935,-178 935,-178 540.96,-178 540.96,-178"/>
<polygon fill="black" stroke="black" points="540.96,-174.5 530.96,-178 540.96,-181.5 540.96,-174.5"/>
</g>
<!-- AppComponent  -->
<g id="node9" class="node">
<title>AppComponent </title>
<polygon fill="#80b1d3" stroke="black" points="543.44,-252 434.56,-252 434.56,-216 543.44,-216 543.44,-252"/>
<text text-anchor="middle" x="489" y="-229.8" font-family="Times,serif" font-size="14.00">AppComponent </text>
</g>
<!-- AppModule&#45;&gt;AppComponent  -->
<g id="edge8" class="edge">
<title>AppModule&#45;&gt;AppComponent </title>
<path fill="none" stroke="black" stroke-dasharray="1,5" d="M489,-187.11C489,-187.11 489,-205.99 489,-205.99"/>
<polygon fill="black" stroke="black" points="485.5,-205.99 489,-215.99 492.5,-205.99 485.5,-205.99"/>
</g>
<!-- AppRoutingModule -->
<g id="node3" class="node">
<title>AppRoutingModule</title>
<polygon fill="#8dd3c7" stroke="black" points="858.27,-122 855.27,-126 834.27,-126 831.27,-122 729.73,-122 729.73,-86 858.27,-86 858.27,-122"/>
<text text-anchor="middle" x="794" y="-99.8" font-family="Times,serif" font-size="14.00">AppRoutingModule</text>
</g>
<!-- AppRoutingModule&#45;&gt;AppModule -->
<g id="edge2" class="edge">
<title>AppRoutingModule&#45;&gt;AppModule</title>
<path fill="none" stroke="black" d="M794,-122.11C794,-141.34 794,-169 794,-169 794,-169 540.77,-169 540.77,-169"/>
<polygon fill="black" stroke="black" points="540.77,-165.5 530.77,-169 540.77,-172.5 540.77,-165.5"/>
</g>
<!-- CollectionPageModule -->
<g id="node4" class="node">
<title>CollectionPageModule</title>
<polygon fill="#8dd3c7" stroke="black" points="711.59,-122 708.59,-126 687.59,-126 684.59,-122 566.41,-122 566.41,-86 711.59,-86 711.59,-122"/>
<text text-anchor="middle" x="639" y="-99.8" font-family="Times,serif" font-size="14.00">CollectionPageModule</text>
</g>
<!-- CollectionPageModule&#45;&gt;AppModule -->
<g id="edge3" class="edge">
<title>CollectionPageModule&#45;&gt;AppModule</title>
<path fill="none" stroke="black" d="M639,-122.03C639,-138.4 639,-160 639,-160 639,-160 540.78,-160 540.78,-160"/>
<polygon fill="black" stroke="black" points="540.78,-156.5 530.78,-160 540.78,-163.5 540.78,-156.5"/>
</g>
<!-- LearnPageModule -->
<g id="node5" class="node">
<title>LearnPageModule</title>
<polygon fill="#8dd3c7" stroke="black" points="548.9,-122 545.9,-126 524.9,-126 521.9,-122 429.1,-122 429.1,-86 548.9,-86 548.9,-122"/>
<text text-anchor="middle" x="489" y="-99.8" font-family="Times,serif" font-size="14.00">LearnPageModule</text>
</g>
<!-- LearnPageModule&#45;&gt;AppModule -->
<g id="edge4" class="edge">
<title>LearnPageModule&#45;&gt;AppModule</title>
<path fill="none" stroke="black" d="M489,-122.11C489,-122.11 489,-140.99 489,-140.99"/>
<polygon fill="black" stroke="black" points="485.5,-140.99 489,-150.99 492.5,-140.99 485.5,-140.99"/>
</g>
<!-- NavbarComponent -->
<g id="node6" class="node">
<title>NavbarComponent</title>
<polygon fill="#8dd3c7" stroke="black" points="411.03,-122 408.03,-126 387.03,-126 384.03,-122 288.97,-122 288.97,-86 411.03,-86 411.03,-122"/>
<text text-anchor="middle" x="350" y="-99.8" font-family="Times,serif" font-size="14.00">NavbarComponent</text>
</g>
<!-- NavbarComponent&#45;&gt;AppModule -->
<g id="edge5" class="edge">
<title>NavbarComponent&#45;&gt;AppModule</title>
<path fill="none" stroke="black" d="M350,-122.03C350,-138.4 350,-160 350,-160 350,-160 437.3,-160 437.3,-160"/>
<polygon fill="black" stroke="black" points="437.3,-163.5 447.3,-160 437.3,-156.5 437.3,-163.5"/>
</g>
<!-- SettingsModule -->
<g id="node7" class="node">
<title>SettingsModule</title>
<polygon fill="#8dd3c7" stroke="black" points="270.16,-122 267.16,-126 246.16,-126 243.16,-122 165.84,-122 165.84,-86 270.16,-86 270.16,-122"/>
<text text-anchor="middle" x="218" y="-99.8" font-family="Times,serif" font-size="14.00">SettingsModule</text>
</g>
<!-- SettingsModule&#45;&gt;AppModule -->
<g id="edge6" class="edge">
<title>SettingsModule&#45;&gt;AppModule</title>
<path fill="none" stroke="black" d="M218,-122.11C218,-141.34 218,-169 218,-169 218,-169 437.25,-169 437.25,-169"/>
<polygon fill="black" stroke="black" points="437.25,-172.5 447.25,-169 437.25,-165.5 437.25,-172.5"/>
</g>
<!-- TabBarComponent -->
<g id="node8" class="node">
<title>TabBarComponent</title>
<polygon fill="#8dd3c7" stroke="black" points="147.81,-122 144.81,-126 123.81,-126 120.81,-122 24.19,-122 24.19,-86 147.81,-86 147.81,-122"/>
<text text-anchor="middle" x="86" y="-99.8" font-family="Times,serif" font-size="14.00">TabBarComponent</text>
</g>
<!-- TabBarComponent&#45;&gt;AppModule -->
<g id="edge7" class="edge">
<title>TabBarComponent&#45;&gt;AppModule</title>
<path fill="none" stroke="black" d="M86,-122.29C86,-144.21 86,-178 86,-178 86,-178 437.01,-178 437.01,-178"/>
<polygon fill="black" stroke="black" points="437.01,-181.5 447.01,-178 437.01,-174.5 437.01,-181.5"/>
</g>
</g>
</svg>
