<?xml version="1.0" encoding="UTF-8" standalone="no"?>
<!DOCTYPE svg PUBLIC "-//W3C//DTD SVG 1.1//EN"
 "http://www.w3.org/Graphics/SVG/1.1/DTD/svg11.dtd">
<!-- Generated by graphviz version 2.47.0 (20210316.0004)
 -->
<!-- Title: dependencies Pages: 1 -->
<svg width="3122pt" height="284pt"
 viewBox="0.00 0.00 3122.00 284.00" xmlns="http://www.w3.org/2000/svg" xmlns:xlink="http://www.w3.org/1999/xlink">
<g id="graph0" class="graph" transform="scale(1 1) rotate(0) translate(4 280)">
<title>dependencies</title>
<polygon fill="white" stroke="transparent" points="-4,4 -4,-280 3118,-280 3118,4 -4,4"/>
<text text-anchor="start" x="1536.01" y="-42.4" font-family="Times-12" font-weight="bold" font-size="14.00">Legend</text>
<polygon fill="#ffffb3" stroke="transparent" points="1323,-10 1323,-30 1343,-30 1343,-10 1323,-10"/>
<text text-anchor="start" x="1346.63" y="-15.4" font-family="Times-12" font-size="14.00"> &#160;Declarations</text>
<polygon fill="#8dd3c7" stroke="transparent" points="1436,-10 1436,-30 1456,-30 1456,-10 1436,-10"/>
<text text-anchor="start" x="1459.73" y="-15.4" font-family="Times-12" font-size="14.00"> &#160;Module</text>
<polygon fill="#80b1d3" stroke="transparent" points="1522,-10 1522,-30 1542,-30 1542,-10 1522,-10"/>
<text text-anchor="start" x="1545.78" y="-15.4" font-family="Times-12" font-size="14.00"> &#160;Bootstrap</text>
<polygon fill="#fdb462" stroke="transparent" points="1619,-10 1619,-30 1639,-30 1639,-10 1619,-10"/>
<text text-anchor="start" x="1642.67" y="-15.4" font-family="Times-12" font-size="14.00"> &#160;Providers</text>
<polygon fill="#fb8072" stroke="transparent" points="1715,-10 1715,-30 1735,-30 1735,-10 1715,-10"/>
<text text-anchor="start" x="1738.73" y="-15.4" font-family="Times-12" font-size="14.00"> &#160;Exports</text>
<g id="clust1" class="cluster">
<title>cluster_AppModule</title>
<polygon fill="none" stroke="black" stroke-dasharray="1,5" points="8,-70 8,-268 3106,-268 3106,-70 8,-70"/>
</g>
<g id="clust2" class="cluster">
<title>cluster_AppModule_declarations</title>
<polygon fill="none" stroke="black" points="2976,-78 2976,-130 3098,-130 3098,-78 2976,-78"/>
</g>
<g id="clust4" class="cluster">
<title>cluster_AppModule_imports</title>
<polygon fill="none" stroke="black" points="882,-78 882,-130 2968,-130 2968,-78 882,-78"/>
</g>
<g id="clust6" class="cluster">
<title>cluster_AppModule_bootstrap</title>
<polygon fill="none" stroke="black" points="2006,-208 2006,-260 2130,-260 2130,-208 2006,-208"/>
</g>
<g id="clust7" class="cluster">
<title>cluster_AppModule_providers</title>
<polygon fill="none" stroke="black" points="16,-78 16,-130 874,-130 874,-78 16,-78"/>
</g>
<!-- AppComponent -->
<g id="node1" class="node">
<title>AppComponent</title>
<polygon fill="#ffffb3" stroke="black" points="3089.94,-122 2984.06,-122 2984.06,-86 3089.94,-86 3089.94,-122"/>
<text text-anchor="middle" x="3037" y="-99.8" font-family="Times,serif" font-size="14.00">AppComponent</text>
</g>
<!-- AppModule -->
<g id="node2" class="node">
<title>AppModule</title>
<polygon fill="#8dd3c7" stroke="black" points="2109.66,-187 2106.66,-191 2085.66,-191 2082.66,-187 2026.34,-187 2026.34,-151 2109.66,-151 2109.66,-187"/>
<text text-anchor="middle" x="2068" y="-164.8" font-family="Times,serif" font-size="14.00">AppModule</text>
</g>
<!-- AppComponent&#45;&gt;AppModule -->
<g id="edge1" class="edge">
<title>AppComponent&#45;&gt;AppModule</title>
<path fill="none" stroke="black" d="M3037,-122.09C3037,-145.13 3037,-182 3037,-182 3037,-182 2119.95,-182 2119.95,-182"/>
<polygon fill="black" stroke="black" points="2119.95,-178.5 2109.95,-182 2119.95,-185.5 2119.95,-178.5"/>
</g>
<!-- AppComponent  -->
<g id="node15" class="node">
<title>AppComponent </title>
<polygon fill="#80b1d3" stroke="black" points="2122.44,-252 2013.56,-252 2013.56,-216 2122.44,-216 2122.44,-252"/>
<text text-anchor="middle" x="2068" y="-229.8" font-family="Times,serif" font-size="14.00">AppComponent </text>
</g>
<!-- AppModule&#45;&gt;AppComponent  -->
<g id="edge14" class="edge">
<title>AppModule&#45;&gt;AppComponent </title>
<path fill="none" stroke="black" stroke-dasharray="1,5" d="M2068,-187.11C2068,-187.11 2068,-205.99 2068,-205.99"/>
<polygon fill="black" stroke="black" points="2064.5,-205.99 2068,-215.99 2071.5,-205.99 2064.5,-205.99"/>
</g>
<!-- AppRoutingModule -->
<g id="node3" class="node">
<title>AppRoutingModule</title>
<polygon fill="#8dd3c7" stroke="black" points="2960.27,-122 2957.27,-126 2936.27,-126 2933.27,-122 2831.73,-122 2831.73,-86 2960.27,-86 2960.27,-122"/>
<text text-anchor="middle" x="2896" y="-99.8" font-family="Times,serif" font-size="14.00">AppRoutingModule</text>
</g>
<!-- AppRoutingModule&#45;&gt;AppModule -->
<g id="edge2" class="edge">
<title>AppRoutingModule&#45;&gt;AppModule</title>
<path fill="none" stroke="black" d="M2896,-122.04C2896,-143.66 2896,-177 2896,-177 2896,-177 2119.91,-177 2119.91,-177"/>
<polygon fill="black" stroke="black" points="2119.91,-173.5 2109.91,-177 2119.91,-180.5 2119.91,-173.5"/>
</g>
<!-- BrowserModule -->
<g id="node4" class="node">
<title>BrowserModule</title>
<polygon fill="#8dd3c7" stroke="black" points="2813.47,-122 2810.47,-126 2789.47,-126 2786.47,-122 2706.53,-122 2706.53,-86 2813.47,-86 2813.47,-122"/>
<text text-anchor="middle" x="2760" y="-99.8" font-family="Times,serif" font-size="14.00">BrowserModule</text>
</g>
<!-- BrowserModule&#45;&gt;AppModule -->
<g id="edge3" class="edge">
<title>BrowserModule&#45;&gt;AppModule</title>
<path fill="none" stroke="black" d="M2760,-122.22C2760,-142.37 2760,-172 2760,-172 2760,-172 2119.73,-172 2119.73,-172"/>
<polygon fill="black" stroke="black" points="2119.73,-168.5 2109.73,-172 2119.73,-175.5 2119.73,-168.5"/>
</g>
<!-- BrowserAnimationsModule -->
<g id="node5" class="node">
<title>BrowserAnimationsModule</title>
<polygon fill="#8dd3c7" stroke="black" points="2688.3,-122 2685.3,-126 2664.3,-126 2661.3,-122 2515.7,-122 2515.7,-86 2688.3,-86 2688.3,-122"/>
<text text-anchor="middle" x="2602" y="-99.8" font-family="Times,serif" font-size="14.00">BrowserAnimationsModule</text>
</g>
<!-- BrowserAnimationsModule&#45;&gt;AppModule -->
<g id="edge4" class="edge">
<title>BrowserAnimationsModule&#45;&gt;AppModule</title>
<path fill="none" stroke="black" d="M2602,-122.22C2602,-140.83 2602,-167 2602,-167 2602,-167 2119.9,-167 2119.9,-167"/>
<polygon fill="black" stroke="black" points="2119.9,-163.5 2109.9,-167 2119.9,-170.5 2119.9,-163.5"/>
</g>
<!-- CollectionPageModule -->
<g id="node6" class="node">
<title>CollectionPageModule</title>
<polygon fill="#8dd3c7" stroke="black" points="2497.59,-122 2494.59,-126 2473.59,-126 2470.59,-122 2352.41,-122 2352.41,-86 2497.59,-86 2497.59,-122"/>
<text text-anchor="middle" x="2425" y="-99.8" font-family="Times,serif" font-size="14.00">CollectionPageModule</text>
</g>
<!-- CollectionPageModule&#45;&gt;AppModule -->
<g id="edge5" class="edge">
<title>CollectionPageModule&#45;&gt;AppModule</title>
<path fill="none" stroke="black" d="M2425,-122.03C2425,-139.06 2425,-162 2425,-162 2425,-162 2120,-162 2120,-162"/>
<polygon fill="black" stroke="black" points="2120,-158.5 2110,-162 2120,-165.5 2120,-158.5"/>
</g>
<!-- HttpClientModule -->
<g id="node7" class="node">
<title>HttpClientModule</title>
<polygon fill="#8dd3c7" stroke="black" points="2334.16,-122 2331.16,-126 2310.16,-126 2307.16,-122 2215.84,-122 2215.84,-86 2334.16,-86 2334.16,-122"/>
<text text-anchor="middle" x="2275" y="-99.8" font-family="Times,serif" font-size="14.00">HttpClientModule</text>
</g>
<!-- HttpClientModule&#45;&gt;AppModule -->
<g id="edge6" class="edge">
<title>HttpClientModule&#45;&gt;AppModule</title>
<path fill="none" stroke="black" d="M2275,-122.24C2275,-137.57 2275,-157 2275,-157 2275,-157 2119.89,-157 2119.89,-157"/>
<polygon fill="black" stroke="black" points="2119.89,-153.5 2109.89,-157 2119.89,-160.5 2119.89,-153.5"/>
</g>
<!-- LearnPageModule -->
<g id="node8" class="node">
<title>LearnPageModule</title>
<polygon fill="#8dd3c7" stroke="black" points="2197.9,-122 2194.9,-126 2173.9,-126 2170.9,-122 2078.1,-122 2078.1,-86 2197.9,-86 2197.9,-122"/>
<text text-anchor="middle" x="2138" y="-99.8" font-family="Times,serif" font-size="14.00">LearnPageModule</text>
</g>
<!-- LearnPageModule&#45;&gt;AppModule -->
<g id="edge7" class="edge">
<title>LearnPageModule&#45;&gt;AppModule</title>
<path fill="none" stroke="black" d="M2094.06,-122.11C2094.06,-122.11 2094.06,-140.99 2094.06,-140.99"/>
<polygon fill="black" stroke="black" points="2090.56,-140.99 2094.06,-150.99 2097.56,-140.99 2090.56,-140.99"/>
</g>
<!-- NavbarComponent -->
<g id="node9" class="node">
<title>NavbarComponent</title>
<polygon fill="#8dd3c7" stroke="black" points="2060.03,-122 2057.03,-126 2036.03,-126 2033.03,-122 1937.97,-122 1937.97,-86 2060.03,-86 2060.03,-122"/>
<text text-anchor="middle" x="1999" y="-99.8" font-family="Times,serif" font-size="14.00">NavbarComponent</text>
</g>
<!-- NavbarComponent&#45;&gt;AppModule -->
<g id="edge8" class="edge">
<title>NavbarComponent&#45;&gt;AppModule</title>
<path fill="none" stroke="black" d="M2043.22,-122.11C2043.22,-122.11 2043.22,-140.99 2043.22,-140.99"/>
<polygon fill="black" stroke="black" points="2039.72,-140.99 2043.22,-150.99 2046.72,-140.99 2039.72,-140.99"/>
</g>
<!-- NgCircleProgressModule.forRoot() -->
<g id="node10" class="node">
<title>NgCircleProgressModule.forRoot()</title>
<polygon fill="#8dd3c7" stroke="black" points="1919.94,-122 1916.94,-126 1895.94,-126 1892.94,-122 1704.06,-122 1704.06,-86 1919.94,-86 1919.94,-122"/>
<text text-anchor="middle" x="1812" y="-99.8" font-family="Times,serif" font-size="14.00">NgCircleProgressModule.forRoot()</text>
</g>
<!-- NgCircleProgressModule.forRoot()&#45;&gt;AppModule -->
<g id="edge9" class="edge">
<title>NgCircleProgressModule.forRoot()&#45;&gt;AppModule</title>
<path fill="none" stroke="black" d="M1812,-122.24C1812,-137.57 1812,-157 1812,-157 1812,-157 2016.3,-157 2016.3,-157"/>
<polygon fill="black" stroke="black" points="2016.3,-160.5 2026.3,-157 2016.3,-153.5 2016.3,-160.5"/>
</g>
<!-- NgxFormControlMessagesModule.forRoot(args) -->
<g id="node11" class="node">
<title>NgxFormControlMessagesModule.forRoot(args)</title>
<polygon fill="#8dd3c7" stroke="black" points="1686.38,-122 1683.38,-126 1662.38,-126 1659.38,-122 1395.62,-122 1395.62,-86 1686.38,-86 1686.38,-122"/>
<text text-anchor="middle" x="1541" y="-99.8" font-family="Times,serif" font-size="14.00">NgxFormControlMessagesModule.forRoot(args)</text>
</g>
<!-- NgxFormControlMessagesModule.forRoot(args)&#45;&gt;AppModule -->
<g id="edge10" class="edge">
<title>NgxFormControlMessagesModule.forRoot(args)&#45;&gt;AppModule</title>
<path fill="none" stroke="black" d="M1541,-122.03C1541,-139.06 1541,-162 1541,-162 1541,-162 2016.21,-162 2016.21,-162"/>
<polygon fill="black" stroke="black" points="2016.21,-165.5 2026.21,-162 2016.21,-158.5 2016.21,-165.5"/>
</g>
<!-- ServiceWorkerModule.register(args) -->
<g id="node12" class="node">
<title>ServiceWorkerModule.register(args)</title>
<polygon fill="#8dd3c7" stroke="black" points="1377.4,-122 1374.4,-126 1353.4,-126 1350.4,-122 1154.6,-122 1154.6,-86 1377.4,-86 1377.4,-122"/>
<text text-anchor="middle" x="1266" y="-99.8" font-family="Times,serif" font-size="14.00">ServiceWorkerModule.register(args)</text>
</g>
<!-- ServiceWorkerModule.register(args)&#45;&gt;AppModule -->
<g id="edge11" class="edge">
<title>ServiceWorkerModule.register(args)&#45;&gt;AppModule</title>
<path fill="none" stroke="black" d="M1266,-122.22C1266,-140.83 1266,-167 1266,-167 1266,-167 2016.29,-167 2016.29,-167"/>
<polygon fill="black" stroke="black" points="2016.29,-170.5 2026.29,-167 2016.29,-163.5 2016.29,-170.5"/>
</g>
<!-- SettingsModule -->
<g id="node13" class="node">
<title>SettingsModule</title>
<polygon fill="#8dd3c7" stroke="black" points="1136.16,-122 1133.16,-126 1112.16,-126 1109.16,-122 1031.84,-122 1031.84,-86 1136.16,-86 1136.16,-122"/>
<text text-anchor="middle" x="1084" y="-99.8" font-family="Times,serif" font-size="14.00">SettingsModule</text>
</g>
<!-- SettingsModule&#45;&gt;AppModule -->
<g id="edge12" class="edge">
<title>SettingsModule&#45;&gt;AppModule</title>
<path fill="none" stroke="black" d="M1084,-122.22C1084,-142.37 1084,-172 1084,-172 1084,-172 2016.03,-172 2016.03,-172"/>
<polygon fill="black" stroke="black" points="2016.03,-175.5 2026.03,-172 2016.03,-168.5 2016.03,-175.5"/>
</g>
<!-- TabBarComponent -->
<g id="node14" class="node">
<title>TabBarComponent</title>
<polygon fill="#8dd3c7" stroke="black" points="1013.81,-122 1010.81,-126 989.81,-126 986.81,-122 890.19,-122 890.19,-86 1013.81,-86 1013.81,-122"/>
<text text-anchor="middle" x="952" y="-99.8" font-family="Times,serif" font-size="14.00">TabBarComponent</text>
</g>
<!-- TabBarComponent&#45;&gt;AppModule -->
<g id="edge13" class="edge">
<title>TabBarComponent&#45;&gt;AppModule</title>
<path fill="none" stroke="black" d="M952,-122.04C952,-143.66 952,-177 952,-177 952,-177 2016.29,-177 2016.29,-177"/>
<polygon fill="black" stroke="black" points="2016.29,-180.5 2026.29,-177 2016.29,-173.5 2016.29,-180.5"/>
</g>
<!-- { provide: APP_INITIALIZER, useFactory: checkForUpdates, multi: , deps: [SwUpdate, MatSnackBar] } -->
<g id="node16" class="node">
<title>{ provide: APP_INITIALIZER, useFactory: checkForUpdates, multi: , deps: [SwUpdate, MatSnackBar] }</title>
<ellipse fill="#fdb462" stroke="black" cx="445" cy="-104" rx="421.48" ry="18"/>
<text text-anchor="middle" x="445" y="-99.8" font-family="Times,serif" font-size="14.00">{ provide: APP_INITIALIZER, useFactory: checkForUpdates, multi: , deps: [SwUpdate, MatSnackBar] }</text>
</g>
<!-- { provide: APP_INITIALIZER, useFactory: checkForUpdates, multi: , deps: [SwUpdate, MatSnackBar] }&#45;&gt;AppModule -->
<g id="edge15" class="edge">
<title>{ provide: APP_INITIALIZER, useFactory: checkForUpdates, multi: , deps: [SwUpdate, MatSnackBar] }&#45;&gt;AppModule</title>
<path fill="none" stroke="black" d="M445,-122.09C445,-145.13 445,-182 445,-182 445,-182 2016.25,-182 2016.25,-182"/>
<polygon fill="black" stroke="black" points="2016.25,-185.5 2026.25,-182 2016.25,-178.5 2016.25,-185.5"/>
</g>
</g>
</svg>
