<?xml version="1.0" encoding="UTF-8" standalone="no"?>
<svg
   viewBox="0 0 24 24"
   version="1.1"
   id="svg4"
   sodipodi:docname="palette-swatch.svg"
   inkscape:version="1.1 (c68e22c387, 2021-05-23)"
   xmlns:inkscape="http://www.inkscape.org/namespaces/inkscape"
   xmlns:sodipodi="http://sodipodi.sourceforge.net/DTD/sodipodi-0.dtd"
   xmlns="http://www.w3.org/2000/svg"
   xmlns:svg="http://www.w3.org/2000/svg">
  <defs
     id="defs8">
    <filter
       style="color-interpolation-filters:sRGB"
       inkscape:label="Blur"
       id="filter6223"
       x="-0.006"
       y="-0.008999989"
       width="1.012"
       height="1.018">
      <feGaussianBlur
         stdDeviation="2 2"
         result="blur"
         id="feGaussianBlur6225" />
    </filter>
    <clipPath
       clipPathUnits="userSpaceOnUse"
       id="clipPath12327">
      <rect
         style="fill:#d70000;fill-opacity:1"
         id="rect12329"
         width="26.666666"
         height="17.7778"
         x="0"
         y="-20"
         transform="scale(1,-1)"
         ry="1.3333334" />
    </clipPath>
    <linearGradient
       id="linearGradient22338">
      <stop
         style="stop-color:#000000;stop-opacity:0;"
         offset="0"
         id="stop22340" />
      <stop
         id="stop6129"
         offset="0.5"
         style="stop-color:#000000;stop-opacity:0;" />
      <stop
         style="stop-color:#000000;stop-opacity:1;"
         offset="1"
         id="stop22342" />
    </linearGradient>
    <linearGradient
       id="linearGradient6136">
      <stop
         style="stop-color:#000000;stop-opacity:0;"
         offset="0"
         id="stop6138" />
      <stop
         style="stop-color:#000000;stop-opacity:1;"
         offset="1"
         id="stop6140" />
    </linearGradient>
    <linearGradient
       id="linearGradient22506">
      <stop
         style="stop-color:#ffffff;stop-opacity:1;"
         offset="0"
         id="stop22508" />
      <stop
         style="stop-color:#ffffff;stop-opacity:0;"
         offset="1"
         id="stop22510" />
    </linearGradient>
  </defs>
  <sodipodi:namedview
     id="namedview6"
     pagecolor="#505050"
     bordercolor="#eeeeee"
     borderopacity="1"
     inkscape:pageshadow="0"
     inkscape:pageopacity="0"
     inkscape:pagecheckerboard="0"
     showgrid="false"
     inkscape:zoom="8.6666667"
     inkscape:cx="-4.0384615"
     inkscape:cy="27.173077"
     inkscape:window-width="1920"
     inkscape:window-height="1017"
     inkscape:window-x="-8"
     inkscape:window-y="-8"
     inkscape:window-maximized="1"
     inkscape:current-layer="svg4" />
  <path
     d="M2.53,19.65L3.87,20.21V11.18L1.44,17.04C1.03,18.06 1.5,19.23 2.53,19.65M22.03,15.95L17.07,4C16.76,3.23 16.03,2.77 15.26,2.75C15,2.75 14.73,2.79 14.47,2.9L7.1,5.95C6.35,6.26 5.89,7 5.87,7.75C5.86,8 5.91,8.29 6,8.55L11,20.5C11.29,21.28 12.03,21.74 12.81,21.75C13.07,21.75 13.33,21.7 13.58,21.6L20.94,18.55C21.96,18.13 22.45,16.96 22.03,15.95M7.88,8.75A1,1 0 0,1 6.88,7.75A1,1 0 0,1 7.88,6.75C8.43,6.75 8.88,7.2 8.88,7.75C8.88,8.3 8.43,8.75 7.88,8.75M5.88,19.75A2,2 0 0,0 7.88,21.75H9.33L5.88,13.41V19.75Z"
     id="path2"
     style="fill:#de2910;fill-opacity:1" />
  <g
     id="g1648"
     transform="rotate(14.169215,33.743171,106.82459)">
    <g
       id="g2761"
       transform="matrix(0.45746963,0.42015122,-0.42935633,0.46749235,-9.1372665,9.6915972)">
      <path
         d="M 4.4444445,4 6.0118712,8.8240454 1.9082925,5.8426214 h 5.072304 l -4.1035787,2.981424 z"
         id="use9-9"
         inkscape:connector-curvature="0"
         style="fill:#ffde00" />
      <path
         d="M 9.236723,3.1819933 9.0882973,4.866233 8.2184046,3.416412 9.7743465,4.078032 8.1266732,4.4573297 Z"
         id="use11-5"
         inkscape:connector-curvature="0"
         style="fill:#ffde00" />
      <path
         d="M 11.304676,5.1588534 10.514301,6.6535106 10.27519,4.9797363 11.452455,6.1933029 9.786712,5.9034858 Z"
         id="use13-1"
         inkscape:connector-curvature="0"
         style="fill:#ffde00" />
      <path
         d="M 11.501659,8.1396306 10.170309,9.1818398 10.634798,7.5561266 11.214589,9.1443769 9.8119791,8.200248 Z"
         id="use15-0"
         inkscape:connector-curvature="0"
         style="fill:#ffde00" />
      <path
         d="M 9.2025054,9.390496 9.1240439,11.079442 8.1947829,9.6669374 9.7768206,10.263472 8.1462917,10.710763 Z"
         id="use17-5"
         inkscape:connector-curvature="0"
         style="fill:#ffde00" />
    </g>
  </g>
</svg>
