<?xml version="1.0" encoding="UTF-8" standalone="no"?>
<!DOCTYPE svg PUBLIC "-//W3C//DTD SVG 1.1//EN"
 "http://www.w3.org/Graphics/SVG/1.1/DTD/svg11.dtd">
<!-- Generated by graphviz version 2.47.0 (20210316.0004)
 -->
<!-- Title: dependencies Pages: 1 -->
<svg width="2213pt" height="211pt"
 viewBox="0.00 0.00 2213.00 211.00" xmlns="http://www.w3.org/2000/svg" xmlns:xlink="http://www.w3.org/1999/xlink">
<g id="graph0" class="graph" transform="scale(1 1) rotate(0) translate(4 207)">
<title>dependencies</title>
<polygon fill="white" stroke="transparent" points="-4,4 -4,-207 2209,-207 2209,4 -4,4"/>
<text text-anchor="start" x="1081.51" y="-42.4" font-family="Times-12" font-weight="bold" font-size="14.00">Legend</text>
<polygon fill="#ffffb3" stroke="transparent" points="868.5,-10 868.5,-30 888.5,-30 888.5,-10 868.5,-10"/>
<text text-anchor="start" x="892.13" y="-15.4" font-family="Times-12" font-size="14.00"> &#160;Declarations</text>
<polygon fill="#8dd3c7" stroke="transparent" points="981.5,-10 981.5,-30 1001.5,-30 1001.5,-10 981.5,-10"/>
<text text-anchor="start" x="1005.23" y="-15.4" font-family="Times-12" font-size="14.00"> &#160;Module</text>
<polygon fill="#80b1d3" stroke="transparent" points="1067.5,-10 1067.5,-30 1087.5,-30 1087.5,-10 1067.5,-10"/>
<text text-anchor="start" x="1091.28" y="-15.4" font-family="Times-12" font-size="14.00"> &#160;Bootstrap</text>
<polygon fill="#fdb462" stroke="transparent" points="1164.5,-10 1164.5,-30 1184.5,-30 1184.5,-10 1164.5,-10"/>
<text text-anchor="start" x="1188.17" y="-15.4" font-family="Times-12" font-size="14.00"> &#160;Providers</text>
<polygon fill="#fb8072" stroke="transparent" points="1260.5,-10 1260.5,-30 1280.5,-30 1280.5,-10 1260.5,-10"/>
<text text-anchor="start" x="1284.23" y="-15.4" font-family="Times-12" font-size="14.00"> &#160;Exports</text>
<g id="clust1" class="cluster">
<title>cluster_CollectionPageModule</title>
<polygon fill="none" stroke="black" stroke-dasharray="1,5" points="8,-70 8,-195 2197,-195 2197,-70 8,-70"/>
</g>
<g id="clust9" class="cluster">
<title>cluster_CollectionPageModule_imports</title>
<polygon fill="none" stroke="black" points="1108,-78 1108,-130 2189,-130 2189,-78 1108,-78"/>
</g>
<g id="clust2" class="cluster">
<title>cluster_CollectionPageModule_declarations</title>
<polygon fill="none" stroke="black" points="16,-78 16,-130 1100,-130 1100,-78 16,-78"/>
</g>
<!-- CardEditorComponent -->
<g id="node1" class="node">
<title>CardEditorComponent</title>
<polygon fill="#ffffb3" stroke="black" points="1091.54,-122 948.46,-122 948.46,-86 1091.54,-86 1091.54,-122"/>
<text text-anchor="middle" x="1020" y="-99.8" font-family="Times,serif" font-size="14.00">CardEditorComponent</text>
</g>
<!-- CollectionPageModule -->
<g id="node7" class="node">
<title>CollectionPageModule</title>
<polygon fill="#8dd3c7" stroke="black" points="1277.59,-187 1274.59,-191 1253.59,-191 1250.59,-187 1132.41,-187 1132.41,-151 1277.59,-151 1277.59,-187"/>
<text text-anchor="middle" x="1205" y="-164.8" font-family="Times,serif" font-size="14.00">CollectionPageModule</text>
</g>
<!-- CardEditorComponent&#45;&gt;CollectionPageModule -->
<g id="edge1" class="edge">
<title>CardEditorComponent&#45;&gt;CollectionPageModule</title>
<path fill="none" stroke="black" d="M1020,-122.24C1020,-137.57 1020,-157 1020,-157 1020,-157 1122.41,-157 1122.41,-157"/>
<polygon fill="black" stroke="black" points="1122.41,-160.5 1132.41,-157 1122.41,-153.5 1122.41,-160.5"/>
</g>
<!-- CardProgressBarComponent -->
<g id="node2" class="node">
<title>CardProgressBarComponent</title>
<polygon fill="#ffffb3" stroke="black" points="930.46,-122 753.54,-122 753.54,-86 930.46,-86 930.46,-122"/>
<text text-anchor="middle" x="842" y="-99.8" font-family="Times,serif" font-size="14.00">CardProgressBarComponent</text>
</g>
<!-- CardProgressBarComponent&#45;&gt;CollectionPageModule -->
<g id="edge2" class="edge">
<title>CardProgressBarComponent&#45;&gt;CollectionPageModule</title>
<path fill="none" stroke="black" d="M842,-122.03C842,-139.06 842,-162 842,-162 842,-162 1122.41,-162 1122.41,-162"/>
<polygon fill="black" stroke="black" points="1122.41,-165.5 1132.41,-162 1122.41,-158.5 1122.41,-165.5"/>
</g>
<!-- CardViewerComponent -->
<g id="node3" class="node">
<title>CardViewerComponent</title>
<polygon fill="#ffffb3" stroke="black" points="735.74,-122 586.26,-122 586.26,-86 735.74,-86 735.74,-122"/>
<text text-anchor="middle" x="661" y="-99.8" font-family="Times,serif" font-size="14.00">CardViewerComponent</text>
</g>
<!-- CardViewerComponent&#45;&gt;CollectionPageModule -->
<g id="edge3" class="edge">
<title>CardViewerComponent&#45;&gt;CollectionPageModule</title>
<path fill="none" stroke="black" d="M661,-122.22C661,-140.83 661,-167 661,-167 661,-167 1122.2,-167 1122.2,-167"/>
<polygon fill="black" stroke="black" points="1122.2,-170.5 1132.2,-167 1122.2,-163.5 1122.2,-170.5"/>
</g>
<!-- CollectionCardsComponent -->
<g id="node4" class="node">
<title>CollectionCardsComponent</title>
<polygon fill="#ffffb3" stroke="black" points="568.32,-122 395.68,-122 395.68,-86 568.32,-86 568.32,-122"/>
<text text-anchor="middle" x="482" y="-99.8" font-family="Times,serif" font-size="14.00">CollectionCardsComponent</text>
</g>
<!-- CollectionCardsComponent&#45;&gt;CollectionPageModule -->
<g id="edge4" class="edge">
<title>CollectionCardsComponent&#45;&gt;CollectionPageModule</title>
<path fill="none" stroke="black" d="M482,-122.22C482,-142.37 482,-172 482,-172 482,-172 1122.37,-172 1122.37,-172"/>
<polygon fill="black" stroke="black" points="1122.37,-175.5 1132.37,-172 1122.37,-168.5 1122.37,-175.5"/>
</g>
<!-- CollectionEditorComponent -->
<g id="node5" class="node">
<title>CollectionEditorComponent</title>
<polygon fill="#ffffb3" stroke="black" points="378.16,-122 203.84,-122 203.84,-86 378.16,-86 378.16,-122"/>
<text text-anchor="middle" x="291" y="-99.8" font-family="Times,serif" font-size="14.00">CollectionEditorComponent</text>
</g>
<!-- CollectionEditorComponent&#45;&gt;CollectionPageModule -->
<g id="edge5" class="edge">
<title>CollectionEditorComponent&#45;&gt;CollectionPageModule</title>
<path fill="none" stroke="black" d="M291,-122.04C291,-143.66 291,-177 291,-177 291,-177 1122.13,-177 1122.13,-177"/>
<polygon fill="black" stroke="black" points="1122.13,-180.5 1132.13,-177 1122.13,-173.5 1122.13,-180.5"/>
</g>
<!-- CollectionListComponent -->
<g id="node6" class="node">
<title>CollectionListComponent</title>
<polygon fill="#ffffb3" stroke="black" points="185.94,-122 24.06,-122 24.06,-86 185.94,-86 185.94,-122"/>
<text text-anchor="middle" x="105" y="-99.8" font-family="Times,serif" font-size="14.00">CollectionListComponent</text>
</g>
<!-- CollectionListComponent&#45;&gt;CollectionPageModule -->
<g id="edge6" class="edge">
<title>CollectionListComponent&#45;&gt;CollectionPageModule</title>
<path fill="none" stroke="black" d="M105,-122.09C105,-145.13 105,-182 105,-182 105,-182 1122.4,-182 1122.4,-182"/>
<polygon fill="black" stroke="black" points="1122.4,-185.5 1132.4,-182 1122.4,-178.5 1122.4,-185.5"/>
</g>
<!-- ButtonComponent -->
<g id="node8" class="node">
<title>ButtonComponent</title>
<polygon fill="#8dd3c7" stroke="black" points="2180.95,-122 2177.95,-126 2156.95,-126 2153.95,-122 2061.05,-122 2061.05,-86 2180.95,-86 2180.95,-122"/>
<text text-anchor="middle" x="2121" y="-99.8" font-family="Times,serif" font-size="14.00">ButtonComponent</text>
</g>
<!-- ButtonComponent&#45;&gt;CollectionPageModule -->
<g id="edge7" class="edge">
<title>ButtonComponent&#45;&gt;CollectionPageModule</title>
<path fill="none" stroke="black" d="M2121,-122.09C2121,-145.13 2121,-182 2121,-182 2121,-182 1287.64,-182 1287.64,-182"/>
<polygon fill="black" stroke="black" points="1287.64,-178.5 1277.64,-182 1287.64,-185.5 1287.64,-178.5"/>
</g>
<!-- CardComponent -->
<g id="node9" class="node">
<title>CardComponent</title>
<polygon fill="#8dd3c7" stroke="black" points="2043.05,-122 2040.05,-126 2019.05,-126 2016.05,-122 1934.95,-122 1934.95,-86 2043.05,-86 2043.05,-122"/>
<text text-anchor="middle" x="1989" y="-99.8" font-family="Times,serif" font-size="14.00">CardComponent</text>
</g>
<!-- CardComponent&#45;&gt;CollectionPageModule -->
<g id="edge8" class="edge">
<title>CardComponent&#45;&gt;CollectionPageModule</title>
<path fill="none" stroke="black" d="M1989,-122.04C1989,-143.66 1989,-177 1989,-177 1989,-177 1287.7,-177 1287.7,-177"/>
<polygon fill="black" stroke="black" points="1287.7,-173.5 1277.7,-177 1287.7,-180.5 1287.7,-173.5"/>
</g>
<!-- CardDifficultyComponent -->
<g id="node10" class="node">
<title>CardDifficultyComponent</title>
<polygon fill="#8dd3c7" stroke="black" points="1916.75,-122 1913.75,-126 1892.75,-126 1889.75,-122 1753.25,-122 1753.25,-86 1916.75,-86 1916.75,-122"/>
<text text-anchor="middle" x="1835" y="-99.8" font-family="Times,serif" font-size="14.00">CardDifficultyComponent</text>
</g>
<!-- CardDifficultyComponent&#45;&gt;CollectionPageModule -->
<g id="edge9" class="edge">
<title>CardDifficultyComponent&#45;&gt;CollectionPageModule</title>
<path fill="none" stroke="black" d="M1835,-122.22C1835,-142.37 1835,-172 1835,-172 1835,-172 1287.58,-172 1287.58,-172"/>
<polygon fill="black" stroke="black" points="1287.58,-168.5 1277.58,-172 1287.58,-175.5 1287.58,-168.5"/>
</g>
<!-- CardMeaningsPipe -->
<g id="node11" class="node">
<title>CardMeaningsPipe</title>
<polygon fill="#8dd3c7" stroke="black" points="1734.81,-122 1731.81,-126 1710.81,-126 1707.81,-122 1611.19,-122 1611.19,-86 1734.81,-86 1734.81,-122"/>
<text text-anchor="middle" x="1673" y="-99.8" font-family="Times,serif" font-size="14.00">CardMeaningsPipe</text>
</g>
<!-- CardMeaningsPipe&#45;&gt;CollectionPageModule -->
<g id="edge10" class="edge">
<title>CardMeaningsPipe&#45;&gt;CollectionPageModule</title>
<path fill="none" stroke="black" d="M1673,-122.22C1673,-140.83 1673,-167 1673,-167 1673,-167 1287.61,-167 1287.61,-167"/>
<polygon fill="black" stroke="black" points="1287.61,-163.5 1277.61,-167 1287.61,-170.5 1287.61,-163.5"/>
</g>
<!-- InlineConfirmDialogComponent -->
<g id="node12" class="node">
<title>InlineConfirmDialogComponent</title>
<polygon fill="#8dd3c7" stroke="black" points="1593.53,-122 1590.53,-126 1569.53,-126 1566.53,-122 1394.47,-122 1394.47,-86 1593.53,-86 1593.53,-122"/>
<text text-anchor="middle" x="1494" y="-99.8" font-family="Times,serif" font-size="14.00">InlineConfirmDialogComponent</text>
</g>
<!-- InlineConfirmDialogComponent&#45;&gt;CollectionPageModule -->
<g id="edge11" class="edge">
<title>InlineConfirmDialogComponent&#45;&gt;CollectionPageModule</title>
<path fill="none" stroke="black" d="M1494,-122.03C1494,-139.06 1494,-162 1494,-162 1494,-162 1287.55,-162 1287.55,-162"/>
<polygon fill="black" stroke="black" points="1287.55,-158.5 1277.55,-162 1287.55,-165.5 1287.55,-158.5"/>
</g>
<!-- JoinPipe -->
<g id="node13" class="node">
<title>JoinPipe</title>
<polygon fill="#8dd3c7" stroke="black" points="1376.22,-122 1373.22,-126 1352.22,-126 1349.22,-122 1311.78,-122 1311.78,-86 1376.22,-86 1376.22,-122"/>
<text text-anchor="middle" x="1344" y="-99.8" font-family="Times,serif" font-size="14.00">JoinPipe</text>
</g>
<!-- JoinPipe&#45;&gt;CollectionPageModule -->
<g id="edge12" class="edge">
<title>JoinPipe&#45;&gt;CollectionPageModule</title>
<path fill="none" stroke="black" d="M1344,-122.24C1344,-137.57 1344,-157 1344,-157 1344,-157 1287.76,-157 1287.76,-157"/>
<polygon fill="black" stroke="black" points="1287.76,-153.5 1277.76,-157 1287.76,-160.5 1287.76,-153.5"/>
</g>
<!-- PinyinFormFieldComponent -->
<g id="node14" class="node">
<title>PinyinFormFieldComponent</title>
<polygon fill="#8dd3c7" stroke="black" points="1293.51,-122 1290.51,-126 1269.51,-126 1266.51,-122 1116.49,-122 1116.49,-86 1293.51,-86 1293.51,-122"/>
<text text-anchor="middle" x="1205" y="-99.8" font-family="Times,serif" font-size="14.00">PinyinFormFieldComponent</text>
</g>
<!-- PinyinFormFieldComponent&#45;&gt;CollectionPageModule -->
<g id="edge13" class="edge">
<title>PinyinFormFieldComponent&#45;&gt;CollectionPageModule</title>
<path fill="none" stroke="black" d="M1205,-122.11C1205,-122.11 1205,-140.99 1205,-140.99"/>
<polygon fill="black" stroke="black" points="1201.5,-140.99 1205,-150.99 1208.5,-140.99 1201.5,-140.99"/>
</g>
</g>
</svg>
