<?xml version="1.0" encoding="UTF-8" standalone="no"?>
<!DOCTYPE svg PUBLIC "-//W3C//DTD SVG 1.1//EN"
 "http://www.w3.org/Graphics/SVG/1.1/DTD/svg11.dtd">
<!-- Generated by graphviz version 2.47.0 (20210316.0004)
 -->
<!-- Title: dependencies Pages: 1 -->
<svg width="4817pt" height="211pt"
 viewBox="0.00 0.00 4817.00 211.00" xmlns="http://www.w3.org/2000/svg" xmlns:xlink="http://www.w3.org/1999/xlink">
<g id="graph0" class="graph" transform="scale(1 1) rotate(0) translate(4 207)">
<title>dependencies</title>
<polygon fill="white" stroke="transparent" points="-4,4 -4,-207 4813,-207 4813,4 -4,4"/>
<text text-anchor="start" x="2383.51" y="-42.4" font-family="Times-12" font-weight="bold" font-size="14.00">Legend</text>
<polygon fill="#ffffb3" stroke="transparent" points="2170.5,-10 2170.5,-30 2190.5,-30 2190.5,-10 2170.5,-10"/>
<text text-anchor="start" x="2194.13" y="-15.4" font-family="Times-12" font-size="14.00"> &#160;Declarations</text>
<polygon fill="#8dd3c7" stroke="transparent" points="2283.5,-10 2283.5,-30 2303.5,-30 2303.5,-10 2283.5,-10"/>
<text text-anchor="start" x="2307.23" y="-15.4" font-family="Times-12" font-size="14.00"> &#160;Module</text>
<polygon fill="#80b1d3" stroke="transparent" points="2369.5,-10 2369.5,-30 2389.5,-30 2389.5,-10 2369.5,-10"/>
<text text-anchor="start" x="2393.28" y="-15.4" font-family="Times-12" font-size="14.00"> &#160;Bootstrap</text>
<polygon fill="#fdb462" stroke="transparent" points="2466.5,-10 2466.5,-30 2486.5,-30 2486.5,-10 2466.5,-10"/>
<text text-anchor="start" x="2490.17" y="-15.4" font-family="Times-12" font-size="14.00"> &#160;Providers</text>
<polygon fill="#fb8072" stroke="transparent" points="2562.5,-10 2562.5,-30 2582.5,-30 2582.5,-10 2562.5,-10"/>
<text text-anchor="start" x="2586.23" y="-15.4" font-family="Times-12" font-size="14.00"> &#160;Exports</text>
<g id="clust1" class="cluster">
<title>cluster_CollectionPageModule</title>
<polygon fill="none" stroke="black" stroke-dasharray="1,5" points="8,-70 8,-195 4801,-195 4801,-70 8,-70"/>
</g>
<g id="clust2" class="cluster">
<title>cluster_CollectionPageModule_declarations</title>
<polygon fill="none" stroke="black" points="3709,-78 3709,-130 4793,-130 4793,-78 3709,-78"/>
</g>
<g id="clust9" class="cluster">
<title>cluster_CollectionPageModule_imports</title>
<polygon fill="none" stroke="black" points="16,-78 16,-130 3701,-130 3701,-78 16,-78"/>
</g>
<!-- CollectionListComponent -->
<g id="node1" class="node">
<title>CollectionListComponent</title>
<polygon fill="#ffffb3" stroke="black" points="4784.94,-122 4623.06,-122 4623.06,-86 4784.94,-86 4784.94,-122"/>
<text text-anchor="middle" x="4704" y="-99.8" font-family="Times,serif" font-size="14.00">CollectionListComponent</text>
</g>
<!-- CollectionPageModule -->
<g id="node7" class="node">
<title>CollectionPageModule</title>
<polygon fill="#8dd3c7" stroke="black" points="2417.59,-187 2414.59,-191 2393.59,-191 2390.59,-187 2272.41,-187 2272.41,-151 2417.59,-151 2417.59,-187"/>
<text text-anchor="middle" x="2345" y="-164.8" font-family="Times,serif" font-size="14.00">CollectionPageModule</text>
</g>
<!-- CollectionListComponent&#45;&gt;CollectionPageModule -->
<g id="edge1" class="edge">
<title>CollectionListComponent&#45;&gt;CollectionPageModule</title>
<path fill="none" stroke="black" d="M4704,-122.38C4704,-146.28 4704,-185 4704,-185 4704,-185 2427.86,-185 2427.86,-185"/>
<polygon fill="black" stroke="black" points="2427.86,-181.5 2417.86,-185 2427.86,-188.5 2427.86,-181.5"/>
</g>
<!-- CollectionCardsComponent -->
<g id="node2" class="node">
<title>CollectionCardsComponent</title>
<polygon fill="#ffffb3" stroke="black" points="4605.32,-122 4432.68,-122 4432.68,-86 4605.32,-86 4605.32,-122"/>
<text text-anchor="middle" x="4519" y="-99.8" font-family="Times,serif" font-size="14.00">CollectionCardsComponent</text>
</g>
<!-- CollectionCardsComponent&#45;&gt;CollectionPageModule -->
<g id="edge2" class="edge">
<title>CollectionCardsComponent&#45;&gt;CollectionPageModule</title>
<path fill="none" stroke="black" d="M4519,-122.32C4519,-145.66 4519,-183 4519,-183 4519,-183 2427.64,-183 2427.64,-183"/>
<polygon fill="black" stroke="black" points="2427.64,-179.5 2417.64,-183 2427.64,-186.5 2427.64,-179.5"/>
</g>
<!-- CardEditorComponent -->
<g id="node3" class="node">
<title>CardEditorComponent</title>
<polygon fill="#ffffb3" stroke="black" points="4414.54,-122 4271.46,-122 4271.46,-86 4414.54,-86 4414.54,-122"/>
<text text-anchor="middle" x="4343" y="-99.8" font-family="Times,serif" font-size="14.00">CardEditorComponent</text>
</g>
<!-- CardEditorComponent&#45;&gt;CollectionPageModule -->
<g id="edge3" class="edge">
<title>CardEditorComponent&#45;&gt;CollectionPageModule</title>
<path fill="none" stroke="black" d="M4343,-122.01C4343,-144.49 4343,-180 4343,-180 4343,-180 2427.59,-180 2427.59,-180"/>
<polygon fill="black" stroke="black" points="2427.59,-176.5 2417.59,-180 2427.59,-183.5 2427.59,-176.5"/>
</g>
<!-- CollectionEditorComponent -->
<g id="node4" class="node">
<title>CollectionEditorComponent</title>
<polygon fill="#ffffb3" stroke="black" points="4253.16,-122 4078.84,-122 4078.84,-86 4253.16,-86 4253.16,-122"/>
<text text-anchor="middle" x="4166" y="-99.8" font-family="Times,serif" font-size="14.00">CollectionEditorComponent</text>
</g>
<!-- CollectionEditorComponent&#45;&gt;CollectionPageModule -->
<g id="edge4" class="edge">
<title>CollectionEditorComponent&#45;&gt;CollectionPageModule</title>
<path fill="none" stroke="black" d="M4166,-122.29C4166,-144.21 4166,-178 4166,-178 4166,-178 2427.79,-178 2427.79,-178"/>
<polygon fill="black" stroke="black" points="2427.79,-174.5 2417.79,-178 2427.79,-181.5 2427.79,-174.5"/>
</g>
<!-- CardViewerComponent -->
<g id="node5" class="node">
<title>CardViewerComponent</title>
<polygon fill="#ffffb3" stroke="black" points="4060.74,-122 3911.26,-122 3911.26,-86 4060.74,-86 4060.74,-122"/>
<text text-anchor="middle" x="3986" y="-99.8" font-family="Times,serif" font-size="14.00">CardViewerComponent</text>
</g>
<!-- CardViewerComponent&#45;&gt;CollectionPageModule -->
<g id="edge5" class="edge">
<title>CardViewerComponent&#45;&gt;CollectionPageModule</title>
<path fill="none" stroke="black" d="M3986,-122.28C3986,-143.32 3986,-175 3986,-175 3986,-175 2427.63,-175 2427.63,-175"/>
<polygon fill="black" stroke="black" points="2427.63,-171.5 2417.63,-175 2427.63,-178.5 2427.63,-171.5"/>
</g>
<!-- CardProgressBarComponent -->
<g id="node6" class="node">
<title>CardProgressBarComponent</title>
<polygon fill="#ffffb3" stroke="black" points="3893.46,-122 3716.54,-122 3716.54,-86 3893.46,-86 3893.46,-122"/>
<text text-anchor="middle" x="3805" y="-99.8" font-family="Times,serif" font-size="14.00">CardProgressBarComponent</text>
</g>
<!-- CardProgressBarComponent&#45;&gt;CollectionPageModule -->
<g id="edge6" class="edge">
<title>CardProgressBarComponent&#45;&gt;CollectionPageModule</title>
<path fill="none" stroke="black" d="M3805,-122.13C3805,-142.57 3805,-173 3805,-173 3805,-173 2427.65,-173 2427.65,-173"/>
<polygon fill="black" stroke="black" points="2427.65,-169.5 2417.65,-173 2427.65,-176.5 2427.65,-169.5"/>
</g>
<!-- ButtonComponent -->
<g id="node8" class="node">
<title>ButtonComponent</title>
<polygon fill="#8dd3c7" stroke="black" points="3692.95,-122 3689.95,-126 3668.95,-126 3665.95,-122 3573.05,-122 3573.05,-86 3692.95,-86 3692.95,-122"/>
<text text-anchor="middle" x="3633" y="-99.8" font-family="Times,serif" font-size="14.00">ButtonComponent</text>
</g>
<!-- ButtonComponent&#45;&gt;CollectionPageModule -->
<g id="edge7" class="edge">
<title>ButtonComponent&#45;&gt;CollectionPageModule</title>
<path fill="none" stroke="black" d="M3633,-122.31C3633,-142.15 3633,-171 3633,-171 3633,-171 2427.94,-171 2427.94,-171"/>
<polygon fill="black" stroke="black" points="2427.94,-167.5 2417.94,-171 2427.94,-174.5 2427.94,-167.5"/>
</g>
<!-- CardComponent -->
<g id="node9" class="node">
<title>CardComponent</title>
<polygon fill="#8dd3c7" stroke="black" points="3555.05,-122 3552.05,-126 3531.05,-126 3528.05,-122 3446.95,-122 3446.95,-86 3555.05,-86 3555.05,-122"/>
<text text-anchor="middle" x="3501" y="-99.8" font-family="Times,serif" font-size="14.00">CardComponent</text>
</g>
<!-- CardComponent&#45;&gt;CollectionPageModule -->
<g id="edge8" class="edge">
<title>CardComponent&#45;&gt;CollectionPageModule</title>
<path fill="none" stroke="black" d="M3501,-122.17C3501,-141.09 3501,-168 3501,-168 3501,-168 2427.75,-168 2427.75,-168"/>
<polygon fill="black" stroke="black" points="2427.75,-164.5 2417.75,-168 2427.75,-171.5 2427.75,-164.5"/>
</g>
<!-- CardDifficultyComponent -->
<g id="node10" class="node">
<title>CardDifficultyComponent</title>
<polygon fill="#8dd3c7" stroke="black" points="3428.75,-122 3425.75,-126 3404.75,-126 3401.75,-122 3265.25,-122 3265.25,-86 3428.75,-86 3428.75,-122"/>
<text text-anchor="middle" x="3347" y="-99.8" font-family="Times,serif" font-size="14.00">CardDifficultyComponent</text>
</g>
<!-- CardDifficultyComponent&#45;&gt;CollectionPageModule -->
<g id="edge9" class="edge">
<title>CardDifficultyComponent&#45;&gt;CollectionPageModule</title>
<path fill="none" stroke="black" d="M3347,-122.27C3347,-140.56 3347,-166 3347,-166 3347,-166 2427.87,-166 2427.87,-166"/>
<polygon fill="black" stroke="black" points="2427.87,-162.5 2417.87,-166 2427.87,-169.5 2427.87,-162.5"/>
</g>
<!-- CardMeaningsPipe -->
<g id="node11" class="node">
<title>CardMeaningsPipe</title>
<polygon fill="#8dd3c7" stroke="black" points="3246.81,-122 3243.81,-126 3222.81,-126 3219.81,-122 3123.19,-122 3123.19,-86 3246.81,-86 3246.81,-122"/>
<text text-anchor="middle" x="3185" y="-99.8" font-family="Times,serif" font-size="14.00">CardMeaningsPipe</text>
</g>
<!-- CardMeaningsPipe&#45;&gt;CollectionPageModule -->
<g id="edge10" class="edge">
<title>CardMeaningsPipe&#45;&gt;CollectionPageModule</title>
<path fill="none" stroke="black" d="M3185,-122.02C3185,-139.37 3185,-163 3185,-163 3185,-163 2427.71,-163 2427.71,-163"/>
<polygon fill="black" stroke="black" points="2427.71,-159.5 2417.71,-163 2427.71,-166.5 2427.71,-159.5"/>
</g>
<!-- CommonModule -->
<g id="node12" class="node">
<title>CommonModule</title>
<polygon fill="#8dd3c7" stroke="black" points="3105.67,-122 3102.67,-126 3081.67,-126 3078.67,-122 2994.33,-122 2994.33,-86 3105.67,-86 3105.67,-122"/>
<text text-anchor="middle" x="3050" y="-99.8" font-family="Times,serif" font-size="14.00">CommonModule</text>
</g>
<!-- CommonModule&#45;&gt;CollectionPageModule -->
<g id="edge11" class="edge">
<title>CommonModule&#45;&gt;CollectionPageModule</title>
<path fill="none" stroke="black" d="M3050,-122.04C3050,-138.73 3050,-161 3050,-161 3050,-161 2427.79,-161 2427.79,-161"/>
<polygon fill="black" stroke="black" points="2427.79,-157.5 2417.79,-161 2427.79,-164.5 2427.79,-157.5"/>
</g>
<!-- FontAwesomeModule -->
<g id="node13" class="node">
<title>FontAwesomeModule</title>
<polygon fill="#8dd3c7" stroke="black" points="2976.7,-122 2973.7,-126 2952.7,-126 2949.7,-122 2835.3,-122 2835.3,-86 2976.7,-86 2976.7,-122"/>
<text text-anchor="middle" x="2906" y="-99.8" font-family="Times,serif" font-size="14.00">FontAwesomeModule</text>
</g>
<!-- FontAwesomeModule&#45;&gt;CollectionPageModule -->
<g id="edge12" class="edge">
<title>FontAwesomeModule&#45;&gt;CollectionPageModule</title>
<path fill="none" stroke="black" d="M2906,-122.01C2906,-138.05 2906,-159 2906,-159 2906,-159 2427.77,-159 2427.77,-159"/>
<polygon fill="black" stroke="black" points="2427.77,-155.5 2417.77,-159 2427.77,-162.5 2427.77,-155.5"/>
</g>
<!-- FormsModule -->
<g id="node14" class="node">
<title>FormsModule</title>
<polygon fill="#8dd3c7" stroke="black" points="2817.83,-122 2814.83,-126 2793.83,-126 2790.83,-122 2722.17,-122 2722.17,-86 2817.83,-86 2817.83,-122"/>
<text text-anchor="middle" x="2770" y="-99.8" font-family="Times,serif" font-size="14.00">FormsModule</text>
</g>
<!-- FormsModule&#45;&gt;CollectionPageModule -->
<g id="edge13" class="edge">
<title>FormsModule&#45;&gt;CollectionPageModule</title>
<path fill="none" stroke="black" d="M2770,-122.19C2770,-137.18 2770,-156 2770,-156 2770,-156 2427.58,-156 2427.58,-156"/>
<polygon fill="black" stroke="black" points="2427.58,-152.5 2417.58,-156 2427.58,-159.5 2427.58,-152.5"/>
</g>
<!-- InlineConfirmDialogComponent -->
<g id="node15" class="node">
<title>InlineConfirmDialogComponent</title>
<polygon fill="#8dd3c7" stroke="black" points="2704.53,-122 2701.53,-126 2680.53,-126 2677.53,-122 2505.47,-122 2505.47,-86 2704.53,-86 2704.53,-122"/>
<text text-anchor="middle" x="2605" y="-99.8" font-family="Times,serif" font-size="14.00">InlineConfirmDialogComponent</text>
</g>
<!-- InlineConfirmDialogComponent&#45;&gt;CollectionPageModule -->
<g id="edge14" class="edge">
<title>InlineConfirmDialogComponent&#45;&gt;CollectionPageModule</title>
<path fill="none" stroke="black" d="M2605,-122.05C2605,-136.37 2605,-154 2605,-154 2605,-154 2427.77,-154 2427.77,-154"/>
<polygon fill="black" stroke="black" points="2427.77,-150.5 2417.77,-154 2427.77,-157.5 2427.77,-150.5"/>
</g>
<!-- JoinPipe -->
<g id="node16" class="node">
<title>JoinPipe</title>
<polygon fill="#8dd3c7" stroke="black" points="2487.22,-122 2484.22,-126 2463.22,-126 2460.22,-122 2422.78,-122 2422.78,-86 2487.22,-86 2487.22,-122"/>
<text text-anchor="middle" x="2455" y="-99.8" font-family="Times,serif" font-size="14.00">JoinPipe</text>
</g>
<!-- JoinPipe&#45;&gt;CollectionPageModule -->
<g id="edge15" class="edge">
<title>JoinPipe&#45;&gt;CollectionPageModule</title>
<path fill="none" stroke="black" d="M2422.8,-104C2416.26,-104 2411.33,-104 2411.33,-104 2411.33,-104 2411.33,-140.89 2411.33,-140.89"/>
<polygon fill="black" stroke="black" points="2407.83,-140.89 2411.33,-150.89 2414.83,-140.89 2407.83,-140.89"/>
</g>
<!-- MatButtonModule -->
<g id="node17" class="node">
<title>MatButtonModule</title>
<polygon fill="#8dd3c7" stroke="black" points="2405.22,-122 2402.22,-126 2381.22,-126 2378.22,-122 2284.78,-122 2284.78,-86 2405.22,-86 2405.22,-122"/>
<text text-anchor="middle" x="2345" y="-99.8" font-family="Times,serif" font-size="14.00">MatButtonModule</text>
</g>
<!-- MatButtonModule&#45;&gt;CollectionPageModule -->
<g id="edge16" class="edge">
<title>MatButtonModule&#45;&gt;CollectionPageModule</title>
<path fill="none" stroke="black" d="M2345,-122.11C2345,-122.11 2345,-140.99 2345,-140.99"/>
<polygon fill="black" stroke="black" points="2341.5,-140.99 2345,-150.99 2348.5,-140.99 2341.5,-140.99"/>
</g>
<!-- MatCardModule -->
<g id="node18" class="node">
<title>MatCardModule</title>
<polygon fill="#8dd3c7" stroke="black" points="2266.81,-122 2263.81,-126 2242.81,-126 2239.81,-122 2157.19,-122 2157.19,-86 2266.81,-86 2266.81,-122"/>
<text text-anchor="middle" x="2212" y="-99.8" font-family="Times,serif" font-size="14.00">MatCardModule</text>
</g>
<!-- MatCardModule&#45;&gt;CollectionPageModule -->
<g id="edge17" class="edge">
<title>MatCardModule&#45;&gt;CollectionPageModule</title>
<path fill="none" stroke="black" d="M2266.75,-104C2273.83,-104 2278.67,-104 2278.67,-104 2278.67,-104 2278.67,-140.89 2278.67,-140.89"/>
<polygon fill="black" stroke="black" points="2275.17,-140.89 2278.67,-150.89 2282.17,-140.89 2275.17,-140.89"/>
</g>
<!-- MatCheckboxModule -->
<g id="node19" class="node">
<title>MatCheckboxModule</title>
<polygon fill="#8dd3c7" stroke="black" points="2139.37,-122 2136.37,-126 2115.37,-126 2112.37,-122 2000.63,-122 2000.63,-86 2139.37,-86 2139.37,-122"/>
<text text-anchor="middle" x="2070" y="-99.8" font-family="Times,serif" font-size="14.00">MatCheckboxModule</text>
</g>
<!-- MatCheckboxModule&#45;&gt;CollectionPageModule -->
<g id="edge18" class="edge">
<title>MatCheckboxModule&#45;&gt;CollectionPageModule</title>
<path fill="none" stroke="black" d="M2070,-122.05C2070,-136.37 2070,-154 2070,-154 2070,-154 2262.39,-154 2262.39,-154"/>
<polygon fill="black" stroke="black" points="2262.39,-157.5 2272.39,-154 2262.39,-150.5 2262.39,-157.5"/>
</g>
<!-- MatDialogModule -->
<g id="node20" class="node">
<title>MatDialogModule</title>
<polygon fill="#8dd3c7" stroke="black" points="1982.2,-122 1979.2,-126 1958.2,-126 1955.2,-122 1861.8,-122 1861.8,-86 1982.2,-86 1982.2,-122"/>
<text text-anchor="middle" x="1922" y="-99.8" font-family="Times,serif" font-size="14.00">MatDialogModule</text>
</g>
<!-- MatDialogModule&#45;&gt;CollectionPageModule -->
<g id="edge19" class="edge">
<title>MatDialogModule&#45;&gt;CollectionPageModule</title>
<path fill="none" stroke="black" d="M1922,-122.19C1922,-137.18 1922,-156 1922,-156 1922,-156 2262.28,-156 2262.28,-156"/>
<polygon fill="black" stroke="black" points="2262.28,-159.5 2272.28,-156 2262.28,-152.5 2262.28,-159.5"/>
</g>
<!-- MatDividerModule -->
<g id="node21" class="node">
<title>MatDividerModule</title>
<polygon fill="#8dd3c7" stroke="black" points="1843.36,-122 1840.36,-126 1819.36,-126 1816.36,-122 1718.64,-122 1718.64,-86 1843.36,-86 1843.36,-122"/>
<text text-anchor="middle" x="1781" y="-99.8" font-family="Times,serif" font-size="14.00">MatDividerModule</text>
</g>
<!-- MatDividerModule&#45;&gt;CollectionPageModule -->
<g id="edge20" class="edge">
<title>MatDividerModule&#45;&gt;CollectionPageModule</title>
<path fill="none" stroke="black" d="M1781,-122.01C1781,-138.05 1781,-159 1781,-159 1781,-159 2262.42,-159 2262.42,-159"/>
<polygon fill="black" stroke="black" points="2262.42,-162.5 2272.42,-159 2262.42,-155.5 2262.42,-162.5"/>
</g>
<!-- MatFormFieldModule -->
<g id="node22" class="node">
<title>MatFormFieldModule</title>
<polygon fill="#8dd3c7" stroke="black" points="1700.71,-122 1697.71,-126 1676.71,-126 1673.71,-122 1559.29,-122 1559.29,-86 1700.71,-86 1700.71,-122"/>
<text text-anchor="middle" x="1630" y="-99.8" font-family="Times,serif" font-size="14.00">MatFormFieldModule</text>
</g>
<!-- MatFormFieldModule&#45;&gt;CollectionPageModule -->
<g id="edge21" class="edge">
<title>MatFormFieldModule&#45;&gt;CollectionPageModule</title>
<path fill="none" stroke="black" d="M1630,-122.04C1630,-138.73 1630,-161 1630,-161 1630,-161 2262.18,-161 2262.18,-161"/>
<polygon fill="black" stroke="black" points="2262.18,-164.5 2272.18,-161 2262.18,-157.5 2262.18,-164.5"/>
</g>
<!-- MatIconModule -->
<g id="node23" class="node">
<title>MatIconModule</title>
<polygon fill="#8dd3c7" stroke="black" points="1541.47,-122 1538.47,-126 1517.47,-126 1514.47,-122 1434.53,-122 1434.53,-86 1541.47,-86 1541.47,-122"/>
<text text-anchor="middle" x="1488" y="-99.8" font-family="Times,serif" font-size="14.00">MatIconModule</text>
</g>
<!-- MatIconModule&#45;&gt;CollectionPageModule -->
<g id="edge22" class="edge">
<title>MatIconModule&#45;&gt;CollectionPageModule</title>
<path fill="none" stroke="black" d="M1488,-122.02C1488,-139.37 1488,-163 1488,-163 1488,-163 2262.3,-163 2262.3,-163"/>
<polygon fill="black" stroke="black" points="2262.3,-166.5 2272.3,-163 2262.3,-159.5 2262.3,-166.5"/>
</g>
<!-- MatInputModule -->
<g id="node24" class="node">
<title>MatInputModule</title>
<polygon fill="#8dd3c7" stroke="black" points="1416.65,-122 1413.65,-126 1392.65,-126 1389.65,-122 1305.35,-122 1305.35,-86 1416.65,-86 1416.65,-122"/>
<text text-anchor="middle" x="1361" y="-99.8" font-family="Times,serif" font-size="14.00">MatInputModule</text>
</g>
<!-- MatInputModule&#45;&gt;CollectionPageModule -->
<g id="edge23" class="edge">
<title>MatInputModule&#45;&gt;CollectionPageModule</title>
<path fill="none" stroke="black" d="M1361,-122.27C1361,-140.56 1361,-166 1361,-166 1361,-166 2262.24,-166 2262.24,-166"/>
<polygon fill="black" stroke="black" points="2262.24,-169.5 2272.24,-166 2262.24,-162.5 2262.24,-169.5"/>
</g>
<!-- MatPaginatorModule -->
<g id="node25" class="node">
<title>MatPaginatorModule</title>
<polygon fill="#8dd3c7" stroke="black" points="1286.75,-122 1283.75,-126 1262.75,-126 1259.75,-122 1151.25,-122 1151.25,-86 1286.75,-86 1286.75,-122"/>
<text text-anchor="middle" x="1219" y="-99.8" font-family="Times,serif" font-size="14.00">MatPaginatorModule</text>
</g>
<!-- MatPaginatorModule&#45;&gt;CollectionPageModule -->
<g id="edge24" class="edge">
<title>MatPaginatorModule&#45;&gt;CollectionPageModule</title>
<path fill="none" stroke="black" d="M1219,-122.17C1219,-141.09 1219,-168 1219,-168 1219,-168 2262.42,-168 2262.42,-168"/>
<polygon fill="black" stroke="black" points="2262.42,-171.5 2272.42,-168 2262.42,-164.5 2262.42,-171.5"/>
</g>
<!-- MatSlideToggleModule -->
<g id="node26" class="node">
<title>MatSlideToggleModule</title>
<polygon fill="#8dd3c7" stroke="black" points="1133.04,-122 1130.04,-126 1109.04,-126 1106.04,-122 982.96,-122 982.96,-86 1133.04,-86 1133.04,-122"/>
<text text-anchor="middle" x="1058" y="-99.8" font-family="Times,serif" font-size="14.00">MatSlideToggleModule</text>
</g>
<!-- MatSlideToggleModule&#45;&gt;CollectionPageModule -->
<g id="edge25" class="edge">
<title>MatSlideToggleModule&#45;&gt;CollectionPageModule</title>
<path fill="none" stroke="black" d="M1058,-122.31C1058,-142.15 1058,-171 1058,-171 1058,-171 2262.12,-171 2262.12,-171"/>
<polygon fill="black" stroke="black" points="2262.12,-174.5 2272.12,-171 2262.12,-167.5 2262.12,-174.5"/>
</g>
<!-- MatSortModule -->
<g id="node27" class="node">
<title>MatSortModule</title>
<polygon fill="#8dd3c7" stroke="black" points="964.93,-122 961.93,-126 940.93,-126 937.93,-122 859.07,-122 859.07,-86 964.93,-86 964.93,-122"/>
<text text-anchor="middle" x="912" y="-99.8" font-family="Times,serif" font-size="14.00">MatSortModule</text>
</g>
<!-- MatSortModule&#45;&gt;CollectionPageModule -->
<g id="edge26" class="edge">
<title>MatSortModule&#45;&gt;CollectionPageModule</title>
<path fill="none" stroke="black" d="M912,-122.13C912,-142.57 912,-173 912,-173 912,-173 2261.97,-173 2261.97,-173"/>
<polygon fill="black" stroke="black" points="2261.97,-176.5 2271.97,-173 2261.97,-169.5 2261.97,-176.5"/>
</g>
<!-- MatTableModule -->
<g id="node28" class="node">
<title>MatTableModule</title>
<polygon fill="#8dd3c7" stroke="black" points="840.97,-122 837.97,-126 816.97,-126 813.97,-122 727.03,-122 727.03,-86 840.97,-86 840.97,-122"/>
<text text-anchor="middle" x="784" y="-99.8" font-family="Times,serif" font-size="14.00">MatTableModule</text>
</g>
<!-- MatTableModule&#45;&gt;CollectionPageModule -->
<g id="edge27" class="edge">
<title>MatTableModule&#45;&gt;CollectionPageModule</title>
<path fill="none" stroke="black" d="M784,-122.28C784,-143.32 784,-175 784,-175 784,-175 2262.32,-175 2262.32,-175"/>
<polygon fill="black" stroke="black" points="2262.32,-178.5 2272.32,-175 2262.32,-171.5 2262.32,-178.5"/>
</g>
<!-- NgxFormControlMessagesModule -->
<g id="node29" class="node">
<title>NgxFormControlMessagesModule</title>
<polygon fill="#8dd3c7" stroke="black" points="708.69,-122 705.69,-126 684.69,-126 681.69,-122 497.31,-122 497.31,-86 708.69,-86 708.69,-122"/>
<text text-anchor="middle" x="603" y="-99.8" font-family="Times,serif" font-size="14.00">NgxFormControlMessagesModule</text>
</g>
<!-- NgxFormControlMessagesModule&#45;&gt;CollectionPageModule -->
<g id="edge28" class="edge">
<title>NgxFormControlMessagesModule&#45;&gt;CollectionPageModule</title>
<path fill="none" stroke="black" d="M603,-122.29C603,-144.21 603,-178 603,-178 603,-178 2262.37,-178 2262.37,-178"/>
<polygon fill="black" stroke="black" points="2262.37,-181.5 2272.37,-178 2262.37,-174.5 2262.37,-181.5"/>
</g>
<!-- PinyinFormFieldComponent -->
<g id="node30" class="node">
<title>PinyinFormFieldComponent</title>
<polygon fill="#8dd3c7" stroke="black" points="479.51,-122 476.51,-126 455.51,-126 452.51,-122 302.49,-122 302.49,-86 479.51,-86 479.51,-122"/>
<text text-anchor="middle" x="391" y="-99.8" font-family="Times,serif" font-size="14.00">PinyinFormFieldComponent</text>
</g>
<!-- PinyinFormFieldComponent&#45;&gt;CollectionPageModule -->
<g id="edge29" class="edge">
<title>PinyinFormFieldComponent&#45;&gt;CollectionPageModule</title>
<path fill="none" stroke="black" d="M391,-122.01C391,-144.49 391,-180 391,-180 391,-180 2262.26,-180 2262.26,-180"/>
<polygon fill="black" stroke="black" points="2262.26,-183.5 2272.26,-180 2262.26,-176.5 2262.26,-183.5"/>
</g>
<!-- ReactiveFormsModule -->
<g id="node31" class="node">
<title>ReactiveFormsModule</title>
<polygon fill="#8dd3c7" stroke="black" points="284.3,-122 281.3,-126 260.3,-126 257.3,-122 139.7,-122 139.7,-86 284.3,-86 284.3,-122"/>
<text text-anchor="middle" x="212" y="-99.8" font-family="Times,serif" font-size="14.00">ReactiveFormsModule</text>
</g>
<!-- ReactiveFormsModule&#45;&gt;CollectionPageModule -->
<g id="edge30" class="edge">
<title>ReactiveFormsModule&#45;&gt;CollectionPageModule</title>
<path fill="none" stroke="black" d="M212,-122.32C212,-145.66 212,-183 212,-183 212,-183 2262.19,-183 2262.19,-183"/>
<polygon fill="black" stroke="black" points="2262.19,-186.5 2272.19,-183 2262.19,-179.5 2262.19,-186.5"/>
</g>
<!-- RouterModule -->
<g id="node32" class="node">
<title>RouterModule</title>
<polygon fill="#8dd3c7" stroke="black" points="121.65,-122 118.65,-126 97.65,-126 94.65,-122 24.35,-122 24.35,-86 121.65,-86 121.65,-122"/>
<text text-anchor="middle" x="73" y="-99.8" font-family="Times,serif" font-size="14.00">RouterModule</text>
</g>
<!-- RouterModule&#45;&gt;CollectionPageModule -->
<g id="edge31" class="edge">
<title>RouterModule&#45;&gt;CollectionPageModule</title>
<path fill="none" stroke="black" d="M73,-122.38C73,-146.28 73,-185 73,-185 73,-185 2262.3,-185 2262.3,-185"/>
<polygon fill="black" stroke="black" points="2262.3,-188.5 2272.3,-185 2262.3,-181.5 2262.3,-188.5"/>
</g>
</g>
</svg>
