<?xml version="1.0" encoding="UTF-8" standalone="no"?>
<!DOCTYPE svg PUBLIC "-//W3C//DTD SVG 1.1//EN"
 "http://www.w3.org/Graphics/SVG/1.1/DTD/svg11.dtd">
<!-- Generated by graphviz version 2.47.0 (20210316.0004)
 -->
<!-- Title: dependencies Pages: 1 -->
<svg width="3751pt" height="360pt"
 viewBox="0.00 0.00 3751.00 360.00" xmlns="http://www.w3.org/2000/svg" xmlns:xlink="http://www.w3.org/1999/xlink">
<g id="graph0" class="graph" transform="scale(1 1) rotate(0) translate(4 356)">
<title>dependencies</title>
<polygon fill="white" stroke="transparent" points="-4,4 -4,-356 3747,-356 3747,4 -4,4"/>
<text text-anchor="start" x="1850.51" y="-42.4" font-family="Times-12" font-weight="bold" font-size="14.00">Legend</text>
<polygon fill="#ffffb3" stroke="transparent" points="1637.5,-10 1637.5,-30 1657.5,-30 1657.5,-10 1637.5,-10"/>
<text text-anchor="start" x="1661.13" y="-15.4" font-family="Times-12" font-size="14.00"> &#160;Declarations</text>
<polygon fill="#8dd3c7" stroke="transparent" points="1750.5,-10 1750.5,-30 1770.5,-30 1770.5,-10 1750.5,-10"/>
<text text-anchor="start" x="1774.23" y="-15.4" font-family="Times-12" font-size="14.00"> &#160;Module</text>
<polygon fill="#80b1d3" stroke="transparent" points="1836.5,-10 1836.5,-30 1856.5,-30 1856.5,-10 1836.5,-10"/>
<text text-anchor="start" x="1860.28" y="-15.4" font-family="Times-12" font-size="14.00"> &#160;Bootstrap</text>
<polygon fill="#fdb462" stroke="transparent" points="1933.5,-10 1933.5,-30 1953.5,-30 1953.5,-10 1933.5,-10"/>
<text text-anchor="start" x="1957.17" y="-15.4" font-family="Times-12" font-size="14.00"> &#160;Providers</text>
<polygon fill="#fb8072" stroke="transparent" points="2029.5,-10 2029.5,-30 2049.5,-30 2049.5,-10 2029.5,-10"/>
<text text-anchor="start" x="2053.23" y="-15.4" font-family="Times-12" font-size="14.00"> &#160;Exports</text>
<g id="clust1" class="cluster">
<title>cluster_AppModule</title>
<polygon fill="none" stroke="black" stroke-dasharray="1,5" points="1608,-146 1608,-344 2605,-344 2605,-146 1608,-146"/>
</g>
<g id="clust2" class="cluster">
<title>cluster_AppModule_declarations</title>
<polygon fill="none" stroke="black" points="2475,-154 2475,-206 2597,-206 2597,-154 2475,-154"/>
</g>
<g id="clust4" class="cluster">
<title>cluster_AppModule_imports</title>
<polygon fill="none" stroke="black" points="1616,-154 1616,-206 2467,-206 2467,-154 1616,-154"/>
</g>
<g id="clust6" class="cluster">
<title>cluster_AppModule_bootstrap</title>
<polygon fill="none" stroke="black" points="2056,-284 2056,-336 2180,-336 2180,-284 2056,-284"/>
</g>
<g id="clust14" class="cluster">
<title>cluster_CollectionPageModule</title>
<polygon fill="none" stroke="black" stroke-dasharray="1,5" points="8,-70 8,-138 2196,-138 2196,-70 8,-70"/>
</g>
<g id="clust15" class="cluster">
<title>cluster_CollectionPageModule_declarations</title>
<polygon fill="none" stroke="black" points="16,-78 16,-130 1099,-130 1099,-78 16,-78"/>
</g>
<g id="clust22" class="cluster">
<title>cluster_CollectionPageModule_imports</title>
<polygon fill="none" stroke="black" points="1107,-78 1107,-130 2188,-130 2188,-78 1107,-78"/>
</g>
<g id="clust26" class="cluster">
<title>cluster_LearnPageModule</title>
<polygon fill="none" stroke="black" stroke-dasharray="1,5" points="2204,-70 2204,-138 3395,-138 3395,-70 2204,-70"/>
</g>
<g id="clust27" class="cluster">
<title>cluster_LearnPageModule_declarations</title>
<polygon fill="none" stroke="black" points="2628,-78 2628,-130 3387,-130 3387,-78 2628,-78"/>
</g>
<g id="clust32" class="cluster">
<title>cluster_LearnPageModule_imports</title>
<polygon fill="none" stroke="black" points="2212,-78 2212,-130 2620,-130 2620,-78 2212,-78"/>
</g>
<g id="clust36" class="cluster">
<title>cluster_SettingsModule</title>
<polygon fill="none" stroke="black" stroke-dasharray="1,5" points="3403,-70 3403,-138 3735,-138 3735,-70 3403,-70"/>
</g>
<g id="clust37" class="cluster">
<title>cluster_SettingsModule_declarations</title>
<polygon fill="none" stroke="black" points="3585,-78 3585,-130 3727,-130 3727,-78 3585,-78"/>
</g>
<g id="clust39" class="cluster">
<title>cluster_SettingsModule_imports</title>
<polygon fill="none" stroke="black" points="3411,-78 3411,-130 3577,-130 3577,-78 3411,-78"/>
</g>
<!-- AppComponent -->
<g id="node1" class="node">
<title>AppComponent</title>
<polygon fill="#ffffb3" stroke="black" points="2588.94,-198 2483.06,-198 2483.06,-162 2588.94,-162 2588.94,-198"/>
<text text-anchor="middle" x="2536" y="-175.8" font-family="Times,serif" font-size="14.00">AppComponent</text>
</g>
<!-- AppModule -->
<g id="node2" class="node">
<title>AppModule</title>
<polygon fill="#8dd3c7" stroke="black" points="2159.66,-263 2156.66,-267 2135.66,-267 2132.66,-263 2076.34,-263 2076.34,-227 2159.66,-227 2159.66,-263"/>
<text text-anchor="middle" x="2118" y="-240.8" font-family="Times,serif" font-size="14.00">AppModule</text>
</g>
<!-- AppComponent&#45;&gt;AppModule -->
<g id="edge1" class="edge">
<title>AppComponent&#45;&gt;AppModule</title>
<path fill="none" stroke="black" d="M2536,-198.29C2536,-220.21 2536,-254 2536,-254 2536,-254 2169.99,-254 2169.99,-254"/>
<polygon fill="black" stroke="black" points="2169.99,-250.5 2159.99,-254 2169.99,-257.5 2169.99,-250.5"/>
</g>
<!-- AppComponent  -->
<g id="node9" class="node">
<title>AppComponent </title>
<polygon fill="#80b1d3" stroke="black" points="2172.44,-328 2063.56,-328 2063.56,-292 2172.44,-292 2172.44,-328"/>
<text text-anchor="middle" x="2118" y="-305.8" font-family="Times,serif" font-size="14.00">AppComponent </text>
</g>
<!-- AppModule&#45;&gt;AppComponent  -->
<g id="edge8" class="edge">
<title>AppModule&#45;&gt;AppComponent </title>
<path fill="none" stroke="black" stroke-dasharray="1,5" d="M2118,-263.11C2118,-263.11 2118,-281.99 2118,-281.99"/>
<polygon fill="black" stroke="black" points="2114.5,-281.99 2118,-291.99 2121.5,-281.99 2114.5,-281.99"/>
</g>
<!-- AppRoutingModule -->
<g id="node3" class="node">
<title>AppRoutingModule</title>
<polygon fill="#8dd3c7" stroke="black" points="2317.27,-198 2314.27,-202 2293.27,-202 2290.27,-198 2188.73,-198 2188.73,-162 2317.27,-162 2317.27,-198"/>
<text text-anchor="middle" x="2253" y="-175.8" font-family="Times,serif" font-size="14.00">AppRoutingModule</text>
</g>
<!-- AppRoutingModule&#45;&gt;AppModule -->
<g id="edge2" class="edge">
<title>AppRoutingModule&#45;&gt;AppModule</title>
<path fill="none" stroke="black" d="M2253,-198.03C2253,-214.4 2253,-236 2253,-236 2253,-236 2169.97,-236 2169.97,-236"/>
<polygon fill="black" stroke="black" points="2169.97,-232.5 2159.97,-236 2169.97,-239.5 2169.97,-232.5"/>
</g>
<!-- CollectionPageModule -->
<g id="node4" class="node">
<title>CollectionPageModule</title>
<polygon fill="#8dd3c7" stroke="black" points="1769.59,-198 1766.59,-202 1745.59,-202 1742.59,-198 1624.41,-198 1624.41,-162 1769.59,-162 1769.59,-198"/>
<text text-anchor="middle" x="1697" y="-175.8" font-family="Times,serif" font-size="14.00">CollectionPageModule</text>
</g>
<!-- CollectionPageModule&#45;&gt;AppModule -->
<g id="edge3" class="edge">
<title>CollectionPageModule&#45;&gt;AppModule</title>
<path fill="none" stroke="black" d="M1697,-198.29C1697,-220.21 1697,-254 1697,-254 1697,-254 2066.09,-254 2066.09,-254"/>
<polygon fill="black" stroke="black" points="2066.09,-257.5 2076.09,-254 2066.09,-250.5 2066.09,-257.5"/>
</g>
<!-- LearnPageModule -->
<g id="node5" class="node">
<title>LearnPageModule</title>
<polygon fill="#8dd3c7" stroke="black" points="2047.9,-198 2044.9,-202 2023.9,-202 2020.9,-198 1928.1,-198 1928.1,-162 2047.9,-162 2047.9,-198"/>
<text text-anchor="middle" x="1988" y="-175.8" font-family="Times,serif" font-size="14.00">LearnPageModule</text>
</g>
<!-- LearnPageModule&#45;&gt;AppModule -->
<g id="edge4" class="edge">
<title>LearnPageModule&#45;&gt;AppModule</title>
<path fill="none" stroke="black" d="M1988,-198.03C1988,-214.4 1988,-236 1988,-236 1988,-236 2066.15,-236 2066.15,-236"/>
<polygon fill="black" stroke="black" points="2066.15,-239.5 2076.15,-236 2066.15,-232.5 2066.15,-239.5"/>
</g>
<!-- NavbarComponent -->
<g id="node6" class="node">
<title>NavbarComponent</title>
<polygon fill="#8dd3c7" stroke="black" points="1910.03,-198 1907.03,-202 1886.03,-202 1883.03,-198 1787.97,-198 1787.97,-162 1910.03,-162 1910.03,-198"/>
<text text-anchor="middle" x="1849" y="-175.8" font-family="Times,serif" font-size="14.00">NavbarComponent</text>
</g>
<!-- NavbarComponent&#45;&gt;AppModule -->
<g id="edge5" class="edge">
<title>NavbarComponent&#45;&gt;AppModule</title>
<path fill="none" stroke="black" d="M1849,-198.11C1849,-217.34 1849,-245 1849,-245 1849,-245 2066.26,-245 2066.26,-245"/>
<polygon fill="black" stroke="black" points="2066.26,-248.5 2076.26,-245 2066.26,-241.5 2066.26,-248.5"/>
</g>
<!-- SettingsModule -->
<g id="node7" class="node">
<title>SettingsModule</title>
<polygon fill="#8dd3c7" stroke="black" points="2170.16,-198 2167.16,-202 2146.16,-202 2143.16,-198 2065.84,-198 2065.84,-162 2170.16,-162 2170.16,-198"/>
<text text-anchor="middle" x="2118" y="-175.8" font-family="Times,serif" font-size="14.00">SettingsModule</text>
</g>
<!-- SettingsModule&#45;&gt;AppModule -->
<g id="edge6" class="edge">
<title>SettingsModule&#45;&gt;AppModule</title>
<path fill="none" stroke="black" d="M2118,-198.11C2118,-198.11 2118,-216.99 2118,-216.99"/>
<polygon fill="black" stroke="black" points="2114.5,-216.99 2118,-226.99 2121.5,-216.99 2114.5,-216.99"/>
</g>
<!-- TabBarComponent -->
<g id="node8" class="node">
<title>TabBarComponent</title>
<polygon fill="#8dd3c7" stroke="black" points="2458.81,-198 2455.81,-202 2434.81,-202 2431.81,-198 2335.19,-198 2335.19,-162 2458.81,-162 2458.81,-198"/>
<text text-anchor="middle" x="2397" y="-175.8" font-family="Times,serif" font-size="14.00">TabBarComponent</text>
</g>
<!-- TabBarComponent&#45;&gt;AppModule -->
<g id="edge7" class="edge">
<title>TabBarComponent&#45;&gt;AppModule</title>
<path fill="none" stroke="black" d="M2397,-198.11C2397,-217.34 2397,-245 2397,-245 2397,-245 2169.77,-245 2169.77,-245"/>
<polygon fill="black" stroke="black" points="2169.77,-241.5 2159.77,-245 2169.77,-248.5 2169.77,-241.5"/>
</g>
<!-- CardEditorComponent -->
<g id="node10" class="node">
<title>CardEditorComponent</title>
<polygon fill="#ffffb3" stroke="black" points="529.54,-122 386.46,-122 386.46,-86 529.54,-86 529.54,-122"/>
<text text-anchor="middle" x="458" y="-99.8" font-family="Times,serif" font-size="14.00">CardEditorComponent</text>
</g>
<!-- CardEditorComponent&#45;&gt;CollectionPageModule -->
<g id="edge9" class="edge">
<title>CardEditorComponent&#45;&gt;CollectionPageModule</title>
<path fill="none" stroke="black" d="M458,-122.23C458,-146.93 458,-188 458,-188 458,-188 1614.12,-188 1614.12,-188"/>
<polygon fill="black" stroke="black" points="1614.12,-191.5 1624.12,-188 1614.12,-184.5 1614.12,-191.5"/>
</g>
<!-- CardProgressBarComponent -->
<g id="node11" class="node">
<title>CardProgressBarComponent</title>
<polygon fill="#ffffb3" stroke="black" points="368.46,-122 191.54,-122 191.54,-86 368.46,-86 368.46,-122"/>
<text text-anchor="middle" x="280" y="-99.8" font-family="Times,serif" font-size="14.00">CardProgressBarComponent</text>
</g>
<!-- CardProgressBarComponent&#45;&gt;CollectionPageModule -->
<g id="edge10" class="edge">
<title>CardProgressBarComponent&#45;&gt;CollectionPageModule</title>
<path fill="none" stroke="black" d="M280,-122.03C280,-147.51 280,-191 280,-191 280,-191 1614.29,-191 1614.29,-191"/>
<polygon fill="black" stroke="black" points="1614.29,-194.5 1624.29,-191 1614.29,-187.5 1614.29,-194.5"/>
</g>
<!-- CardViewerComponent -->
<g id="node12" class="node">
<title>CardViewerComponent</title>
<polygon fill="#ffffb3" stroke="black" points="173.74,-122 24.26,-122 24.26,-86 173.74,-86 173.74,-122"/>
<text text-anchor="middle" x="99" y="-99.8" font-family="Times,serif" font-size="14.00">CardViewerComponent</text>
</g>
<!-- CardViewerComponent&#45;&gt;CollectionPageModule -->
<g id="edge11" class="edge">
<title>CardViewerComponent&#45;&gt;CollectionPageModule</title>
<path fill="none" stroke="black" d="M99,-122.42C99,-149.01 99,-195 99,-195 99,-195 1614.45,-195 1614.45,-195"/>
<polygon fill="black" stroke="black" points="1614.45,-198.5 1624.45,-195 1614.45,-191.5 1614.45,-198.5"/>
</g>
<!-- CollectionCardsComponent -->
<g id="node13" class="node">
<title>CollectionCardsComponent</title>
<polygon fill="#ffffb3" stroke="black" points="1091.32,-122 918.68,-122 918.68,-86 1091.32,-86 1091.32,-122"/>
<text text-anchor="middle" x="1005" y="-99.8" font-family="Times,serif" font-size="14.00">CollectionCardsComponent</text>
</g>
<!-- CollectionCardsComponent&#45;&gt;CollectionPageModule -->
<g id="edge12" class="edge">
<title>CollectionCardsComponent&#45;&gt;CollectionPageModule</title>
<path fill="none" stroke="black" d="M1005,-122.04C1005,-143.66 1005,-177 1005,-177 1005,-177 1614.25,-177 1614.25,-177"/>
<polygon fill="black" stroke="black" points="1614.25,-180.5 1624.25,-177 1614.25,-173.5 1614.25,-180.5"/>
</g>
<!-- CollectionEditorComponent -->
<g id="node14" class="node">
<title>CollectionEditorComponent</title>
<polygon fill="#ffffb3" stroke="black" points="901.16,-122 726.84,-122 726.84,-86 901.16,-86 901.16,-122"/>
<text text-anchor="middle" x="814" y="-99.8" font-family="Times,serif" font-size="14.00">CollectionEditorComponent</text>
</g>
<!-- CollectionEditorComponent&#45;&gt;CollectionPageModule -->
<g id="edge13" class="edge">
<title>CollectionEditorComponent&#45;&gt;CollectionPageModule</title>
<path fill="none" stroke="black" d="M814,-122.01C814,-144.49 814,-180 814,-180 814,-180 1614.37,-180 1614.37,-180"/>
<polygon fill="black" stroke="black" points="1614.37,-183.5 1624.37,-180 1614.37,-176.5 1614.37,-183.5"/>
</g>
<!-- CollectionListComponent -->
<g id="node15" class="node">
<title>CollectionListComponent</title>
<polygon fill="#ffffb3" stroke="black" points="708.94,-122 547.06,-122 547.06,-86 708.94,-86 708.94,-122"/>
<text text-anchor="middle" x="628" y="-99.8" font-family="Times,serif" font-size="14.00">CollectionListComponent</text>
</g>
<!-- CollectionListComponent&#45;&gt;CollectionPageModule -->
<g id="edge14" class="edge">
<title>CollectionListComponent&#45;&gt;CollectionPageModule</title>
<path fill="none" stroke="black" d="M628,-122.15C628,-145.76 628,-184 628,-184 628,-184 1614.36,-184 1614.36,-184"/>
<polygon fill="black" stroke="black" points="1614.36,-187.5 1624.36,-184 1614.36,-180.5 1614.36,-187.5"/>
</g>
<!-- ButtonComponent -->
<g id="node16" class="node">
<title>ButtonComponent</title>
<polygon fill="#8dd3c7" stroke="black" points="2179.95,-122 2176.95,-126 2155.95,-126 2152.95,-122 2060.05,-122 2060.05,-86 2179.95,-86 2179.95,-122"/>
<text text-anchor="middle" x="2120" y="-99.8" font-family="Times,serif" font-size="14.00">ButtonComponent</text>
</g>
<!-- ButtonComponent&#45;&gt;CollectionPageModule -->
<g id="edge15" class="edge">
<title>ButtonComponent&#45;&gt;CollectionPageModule</title>
<path fill="none" stroke="black" d="M2086.6,-122.03C2086.6,-128.85 2086.6,-135 2086.6,-135 2086.6,-135 1765.19,-135 1765.19,-135 1765.19,-135 1765.19,-151.96 1765.19,-151.96"/>
<polygon fill="black" stroke="black" points="1761.69,-151.96 1765.19,-161.96 1768.69,-151.96 1761.69,-151.96"/>
</g>
<!-- ButtonComponent&#45;&gt;LearnPageModule -->
<g id="edge26" class="edge">
<title>ButtonComponent&#45;&gt;LearnPageModule</title>
<path fill="none" stroke="black" d="M2060.08,-104C2056.31,-104 2053.99,-104 2053.99,-104 2053.99,-104 2053.99,-180 2053.99,-180 2053.99,-180 2053.38,-180 2053.38,-180"/>
<polygon fill="black" stroke="black" points="2057.9,-176.5 2047.9,-180 2057.9,-183.5 2057.9,-176.5"/>
</g>
<!-- ButtonComponent&#45;&gt;SettingsModule -->
<g id="edge34" class="edge">
<title>ButtonComponent&#45;&gt;SettingsModule</title>
<path fill="none" stroke="black" d="M2107.53,-122.01C2107.53,-122.01 2107.53,-151.85 2107.53,-151.85"/>
<polygon fill="black" stroke="black" points="2104.03,-151.85 2107.53,-161.85 2111.03,-151.85 2104.03,-151.85"/>
</g>
<!-- CardComponent -->
<g id="node17" class="node">
<title>CardComponent</title>
<polygon fill="#8dd3c7" stroke="black" points="2042.05,-122 2039.05,-126 2018.05,-126 2015.05,-122 1933.95,-122 1933.95,-86 2042.05,-86 2042.05,-122"/>
<text text-anchor="middle" x="1988" y="-99.8" font-family="Times,serif" font-size="14.00">CardComponent</text>
</g>
<!-- CardComponent&#45;&gt;CollectionPageModule -->
<g id="edge16" class="edge">
<title>CardComponent&#45;&gt;CollectionPageModule</title>
<path fill="none" stroke="black" d="M1963.33,-122.21C1963.33,-127.55 1963.33,-132 1963.33,-132 1963.33,-132 1760.84,-132 1760.84,-132 1760.84,-132 1760.84,-151.85 1760.84,-151.85"/>
<polygon fill="black" stroke="black" points="1757.34,-151.85 1760.84,-161.85 1764.34,-151.85 1757.34,-151.85"/>
</g>
<!-- CardComponent&#45;&gt;LearnPageModule -->
<g id="edge27" class="edge">
<title>CardComponent&#45;&gt;LearnPageModule</title>
<path fill="none" stroke="black" d="M1973.2,-122.01C1973.2,-122.01 1973.2,-151.85 1973.2,-151.85"/>
<polygon fill="black" stroke="black" points="1969.7,-151.85 1973.2,-161.85 1976.7,-151.85 1969.7,-151.85"/>
</g>
<!-- CardDifficultyComponent -->
<g id="node18" class="node">
<title>CardDifficultyComponent</title>
<polygon fill="#8dd3c7" stroke="black" points="1915.75,-122 1912.75,-126 1891.75,-126 1888.75,-122 1752.25,-122 1752.25,-86 1915.75,-86 1915.75,-122"/>
<text text-anchor="middle" x="1834" y="-99.8" font-family="Times,serif" font-size="14.00">CardDifficultyComponent</text>
</g>
<!-- CardDifficultyComponent&#45;&gt;CollectionPageModule -->
<g id="edge17" class="edge">
<title>CardDifficultyComponent&#45;&gt;CollectionPageModule</title>
<path fill="none" stroke="black" d="M1756.48,-122.01C1756.48,-122.01 1756.48,-151.85 1756.48,-151.85"/>
<polygon fill="black" stroke="black" points="1752.98,-151.85 1756.48,-161.85 1759.98,-151.85 1752.98,-151.85"/>
</g>
<!-- CardDifficultyComponent&#45;&gt;LearnPageModule -->
<g id="edge28" class="edge">
<title>CardDifficultyComponent&#45;&gt;LearnPageModule</title>
<path fill="none" stroke="black" d="M1915.75,-104C1919.72,-104 1922.09,-104 1922.09,-104 1922.09,-104 1922.09,-180 1922.09,-180 1922.09,-180 1922.69,-180 1922.69,-180"/>
<polygon fill="black" stroke="black" points="1918.17,-183.5 1928.17,-180 1918.17,-176.5 1918.17,-183.5"/>
</g>
<!-- CardMeaningsPipe -->
<g id="node19" class="node">
<title>CardMeaningsPipe</title>
<polygon fill="#8dd3c7" stroke="black" points="1733.81,-122 1730.81,-126 1709.81,-126 1706.81,-122 1610.19,-122 1610.19,-86 1733.81,-86 1733.81,-122"/>
<text text-anchor="middle" x="1672" y="-99.8" font-family="Times,serif" font-size="14.00">CardMeaningsPipe</text>
</g>
<!-- CardMeaningsPipe&#45;&gt;CollectionPageModule -->
<g id="edge18" class="edge">
<title>CardMeaningsPipe&#45;&gt;CollectionPageModule</title>
<path fill="none" stroke="black" d="M1660.85,-122.01C1660.85,-122.01 1660.85,-151.85 1660.85,-151.85"/>
<polygon fill="black" stroke="black" points="1657.35,-151.85 1660.85,-161.85 1664.35,-151.85 1657.35,-151.85"/>
</g>
<!-- CardMeaningsPipe&#45;&gt;LearnPageModule -->
<g id="edge29" class="edge">
<title>CardMeaningsPipe&#45;&gt;LearnPageModule</title>
<path fill="none" stroke="black" d="M1697.25,-122.17C1697.25,-124.45 1697.25,-126 1697.25,-126 1697.25,-126 1953.46,-126 1953.46,-126 1953.46,-126 1953.46,-151.72 1953.46,-151.72"/>
<polygon fill="black" stroke="black" points="1949.96,-151.72 1953.46,-161.72 1956.96,-151.72 1949.96,-151.72"/>
</g>
<!-- InlineConfirmDialogComponent -->
<g id="node20" class="node">
<title>InlineConfirmDialogComponent</title>
<polygon fill="#8dd3c7" stroke="black" points="1314.53,-122 1311.53,-126 1290.53,-126 1287.53,-122 1115.47,-122 1115.47,-86 1314.53,-86 1314.53,-122"/>
<text text-anchor="middle" x="1215" y="-99.8" font-family="Times,serif" font-size="14.00">InlineConfirmDialogComponent</text>
</g>
<!-- InlineConfirmDialogComponent&#45;&gt;CollectionPageModule -->
<g id="edge19" class="edge">
<title>InlineConfirmDialogComponent&#45;&gt;CollectionPageModule</title>
<path fill="none" stroke="black" d="M1215,-122.13C1215,-142.57 1215,-173 1215,-173 1215,-173 1614.32,-173 1614.32,-173"/>
<polygon fill="black" stroke="black" points="1614.32,-176.5 1624.32,-173 1614.32,-169.5 1614.32,-176.5"/>
</g>
<!-- JoinPipe -->
<g id="node21" class="node">
<title>JoinPipe</title>
<polygon fill="#8dd3c7" stroke="black" points="1397.22,-122 1394.22,-126 1373.22,-126 1370.22,-122 1332.78,-122 1332.78,-86 1397.22,-86 1397.22,-122"/>
<text text-anchor="middle" x="1365" y="-99.8" font-family="Times,serif" font-size="14.00">JoinPipe</text>
</g>
<!-- JoinPipe&#45;&gt;CollectionPageModule -->
<g id="edge20" class="edge">
<title>JoinPipe&#45;&gt;CollectionPageModule</title>
<path fill="none" stroke="black" d="M1365,-122.03C1365,-141.58 1365,-170 1365,-170 1365,-170 1614.14,-170 1614.14,-170"/>
<polygon fill="black" stroke="black" points="1614.14,-173.5 1624.14,-170 1614.14,-166.5 1614.14,-173.5"/>
</g>
<!-- PinyinFormFieldComponent -->
<g id="node22" class="node">
<title>PinyinFormFieldComponent</title>
<polygon fill="#8dd3c7" stroke="black" points="1592.51,-122 1589.51,-126 1568.51,-126 1565.51,-122 1415.49,-122 1415.49,-86 1592.51,-86 1592.51,-122"/>
<text text-anchor="middle" x="1504" y="-99.8" font-family="Times,serif" font-size="14.00">PinyinFormFieldComponent</text>
</g>
<!-- PinyinFormFieldComponent&#45;&gt;CollectionPageModule -->
<g id="edge21" class="edge">
<title>PinyinFormFieldComponent&#45;&gt;CollectionPageModule</title>
<path fill="none" stroke="black" d="M1533.5,-122.27C1533.5,-140.56 1533.5,-166 1533.5,-166 1533.5,-166 1614.33,-166 1614.33,-166"/>
<polygon fill="black" stroke="black" points="1614.34,-169.5 1624.33,-166 1614.33,-162.5 1614.34,-169.5"/>
</g>
<!-- PinyinFormFieldComponent&#45;&gt;LearnPageModule -->
<g id="edge32" class="edge">
<title>PinyinFormFieldComponent&#45;&gt;LearnPageModule</title>
<path fill="none" stroke="black" d="M1474.5,-122.17C1474.5,-126.05 1474.5,-129 1474.5,-129 1474.5,-129 1943.6,-129 1943.6,-129 1943.6,-129 1943.6,-151.88 1943.6,-151.88"/>
<polygon fill="black" stroke="black" points="1940.1,-151.88 1943.6,-161.88 1947.1,-151.88 1940.1,-151.88"/>
</g>
<!-- SessionComponent -->
<g id="node23" class="node">
<title>SessionComponent</title>
<polygon fill="#ffffb3" stroke="black" points="3159.11,-122 3034.89,-122 3034.89,-86 3159.11,-86 3159.11,-122"/>
<text text-anchor="middle" x="3097" y="-99.8" font-family="Times,serif" font-size="14.00">SessionComponent</text>
</g>
<!-- SessionComponent&#45;&gt;LearnPageModule -->
<g id="edge22" class="edge">
<title>SessionComponent&#45;&gt;LearnPageModule</title>
<path fill="none" stroke="black" d="M3097,-122.18C3097,-135.04 3097,-150 3097,-150 3097,-150 2022.54,-150 2022.54,-150 2022.54,-150 2022.54,-151.86 2022.54,-151.86"/>
<polygon fill="black" stroke="black" points="2019.04,-151.86 2022.54,-161.86 2026.04,-151.86 2019.04,-151.86"/>
</g>
<!-- SessionFillingStepComponent -->
<g id="node24" class="node">
<title>SessionFillingStepComponent</title>
<polygon fill="#ffffb3" stroke="black" points="3017.34,-122 2830.66,-122 2830.66,-86 3017.34,-86 3017.34,-122"/>
<text text-anchor="middle" x="2924" y="-99.8" font-family="Times,serif" font-size="14.00">SessionFillingStepComponent</text>
</g>
<!-- SessionFillingStepComponent&#45;&gt;LearnPageModule -->
<g id="edge23" class="edge">
<title>SessionFillingStepComponent&#45;&gt;LearnPageModule</title>
<path fill="none" stroke="black" d="M2924,-122.49C2924,-134.14 2924,-147 2924,-147 2924,-147 2012.67,-147 2012.67,-147 2012.67,-147 2012.67,-151.96 2012.67,-151.96"/>
<polygon fill="black" stroke="black" points="2009.17,-151.96 2012.67,-161.96 2016.17,-151.96 2009.17,-151.96"/>
</g>
<!-- SessionLauncherComponent -->
<g id="node25" class="node">
<title>SessionLauncherComponent</title>
<polygon fill="#ffffb3" stroke="black" points="2812.47,-122 2635.53,-122 2635.53,-86 2812.47,-86 2812.47,-122"/>
<text text-anchor="middle" x="2724" y="-99.8" font-family="Times,serif" font-size="14.00">SessionLauncherComponent</text>
</g>
<!-- SessionLauncherComponent&#45;&gt;LearnPageModule -->
<g id="edge24" class="edge">
<title>SessionLauncherComponent&#45;&gt;LearnPageModule</title>
<path fill="none" stroke="black" d="M2724,-122.13C2724,-132.71 2724,-144 2724,-144 2724,-144 2002.8,-144 2002.8,-144 2002.8,-144 2002.8,-151.58 2002.8,-151.58"/>
<polygon fill="black" stroke="black" points="1999.3,-151.58 2002.8,-161.58 2006.3,-151.58 1999.3,-151.58"/>
</g>
<!-- SessionMatchingStepComponent -->
<g id="node26" class="node">
<title>SessionMatchingStepComponent</title>
<polygon fill="#ffffb3" stroke="black" points="3379.15,-122 3176.85,-122 3176.85,-86 3379.15,-86 3379.15,-122"/>
<text text-anchor="middle" x="3278" y="-99.8" font-family="Times,serif" font-size="14.00">SessionMatchingStepComponent</text>
</g>
<!-- SessionMatchingStepComponent&#45;&gt;LearnPageModule -->
<g id="edge25" class="edge">
<title>SessionMatchingStepComponent&#45;&gt;LearnPageModule</title>
<path fill="none" stroke="black" d="M3278,-122.25C3278,-136.18 3278,-153 3278,-153 3278,-153 2032.4,-153 2032.4,-153 2032.4,-153 2032.4,-153.88 2032.4,-153.88"/>
<polygon fill="black" stroke="black" points="2028.9,-151.84 2032.4,-161.84 2035.9,-151.84 2028.9,-151.84"/>
</g>
<!-- CardProgressIndicatorComponent -->
<g id="node27" class="node">
<title>CardProgressIndicatorComponent</title>
<polygon fill="#8dd3c7" stroke="black" points="2427.78,-122 2424.78,-126 2403.78,-126 2400.78,-122 2220.22,-122 2220.22,-86 2427.78,-86 2427.78,-122"/>
<text text-anchor="middle" x="2324" y="-99.8" font-family="Times,serif" font-size="14.00">CardProgressIndicatorComponent</text>
</g>
<!-- CardProgressIndicatorComponent&#45;&gt;LearnPageModule -->
<g id="edge30" class="edge">
<title>CardProgressIndicatorComponent&#45;&gt;LearnPageModule</title>
<path fill="none" stroke="black" d="M2268.87,-122.19C2268.87,-130.28 2268.87,-138 2268.87,-138 2268.87,-138 1983.07,-138 1983.07,-138 1983.07,-138 1983.07,-151.94 1983.07,-151.94"/>
<polygon fill="black" stroke="black" points="1979.57,-151.94 1983.07,-161.94 1986.57,-151.94 1979.57,-151.94"/>
</g>
<!-- ConfirmDialogComponent -->
<g id="node28" class="node">
<title>ConfirmDialogComponent</title>
<polygon fill="#8dd3c7" stroke="black" points="2612.37,-122 2609.37,-126 2588.37,-126 2585.37,-122 2445.63,-122 2445.63,-86 2612.37,-86 2612.37,-122"/>
<text text-anchor="middle" x="2529" y="-99.8" font-family="Times,serif" font-size="14.00">ConfirmDialogComponent</text>
</g>
<!-- ConfirmDialogComponent&#45;&gt;LearnPageModule -->
<g id="edge31" class="edge">
<title>ConfirmDialogComponent&#45;&gt;LearnPageModule</title>
<path fill="none" stroke="black" d="M2452.11,-122.07C2452.11,-131.46 2452.11,-141 2452.11,-141 2452.11,-141 1992.93,-141 1992.93,-141 1992.93,-141 1992.93,-151.87 1992.93,-151.87"/>
<polygon fill="black" stroke="black" points="1989.43,-151.87 1992.93,-161.87 1996.43,-151.87 1989.43,-151.87"/>
</g>
<!-- SettingsComponent -->
<g id="node29" class="node">
<title>SettingsComponent</title>
<polygon fill="#ffffb3" stroke="black" points="3719.45,-122 3592.55,-122 3592.55,-86 3719.45,-86 3719.45,-122"/>
<text text-anchor="middle" x="3656" y="-99.8" font-family="Times,serif" font-size="14.00">SettingsComponent</text>
</g>
<!-- SettingsComponent&#45;&gt;SettingsModule -->
<g id="edge33" class="edge">
<title>SettingsComponent&#45;&gt;SettingsModule</title>
<path fill="none" stroke="black" d="M3656,-122.01C3656,-138.05 3656,-159 3656,-159 3656,-159 2149.4,-159 2149.4,-159 2149.4,-159 2149.4,-159.29 2149.4,-159.29"/>
<polygon fill="black" stroke="black" points="2145.9,-151.92 2149.4,-161.92 2152.9,-151.92 2145.9,-151.92"/>
</g>
<!-- SlideToggleComponent -->
<g id="node30" class="node">
<title>SlideToggleComponent</title>
<polygon fill="#8dd3c7" stroke="black" points="3568.77,-122 3565.77,-126 3544.77,-126 3541.77,-122 3419.23,-122 3419.23,-86 3568.77,-86 3568.77,-122"/>
<text text-anchor="middle" x="3494" y="-99.8" font-family="Times,serif" font-size="14.00">SlideToggleComponent</text>
</g>
<!-- SlideToggleComponent&#45;&gt;SettingsModule -->
<g id="edge35" class="edge">
<title>SlideToggleComponent&#45;&gt;SettingsModule</title>
<path fill="none" stroke="black" d="M3494,-122.19C3494,-137.18 3494,-156 3494,-156 3494,-156 2128.47,-156 2128.47,-156 2128.47,-156 2128.47,-156.58 2128.47,-156.58"/>
<polygon fill="black" stroke="black" points="2124.97,-151.81 2128.47,-161.81 2131.97,-151.81 2124.97,-151.81"/>
</g>
</g>
</svg>
